<?xml version="1.0" encoding="utf-8"?>
<!-- Generator: Adobe Illustrator 22.0.1, SVG Export Plug-In . SVG Version: 6.00 Build 0)  -->
<svg version="1.1" id="Layer_2_1_" xmlns="http://www.w3.org/2000/svg" xmlns:xlink="http://www.w3.org/1999/xlink" x="0px" y="0px"
	 viewBox="0 0 364.5 418.1" style="enable-background:new 0 0 364.5 418.1;" xml:space="preserve">
<style type="text/css">
	.st0{fill:none;stroke:#000000;stroke-width:4;stroke-linecap:round;stroke-linejoin:round;stroke-miterlimit:10;}
</style>
	<path class="st0" d="M189.7,79.6c4.9,0,53.5-19.5,73.3-27.3"/>
	<path class="st0" d="M175.6,62.1c0.5-1.6,13.8-56,14.8-60.1"/>
	<path class="st0" d="M98,55.4c14.1,3.3,38.6,11.3,54.2,20"/>
	<path class="st0" d="M151.9,98.3c-7.4,3.3-26,17.8-46.3,30.2"/>
	<path class="st0" d="M194.3,100c0,0,18.5,15.5,49,29.4"/>
	<path class="st0" d="M171.5,93.1c0,0,0.4,54.3,15.2,112c7.6,29.8,14.8,46.4,21.9,56c18.8,25.5,53.7,23.4,53.7,23.4
		c-39.5,1.6-84.4,12.9-94.2,16.9s0.4,4.1,36.1,1.9c30.2-1.8,58.1,1.1,58.1,1.1c-26.1,2.8-58.9,7-95.7,16.4
		c-15.9,4.1-1.7,5.4,43.6,4.4c40.4-0.8,53.8,2,53.8,2c-26.5,1.9-78.8,10.7-93.8,15c-17.8,5.1-8.2,3.9,31.3,3.1
		c37.2-0.8,56,0.5,56,0.5c-39.3,1.8-89.4,14.7-90.9,17.6c-0.7,1.3,16.6,1.7,42.9,1.8c25.5,0.1,50.5,3.8,39.4,4.5
		c-20.7,1.3-60.7,8.9-63.3,9.4c-12.8,2.4-51.9,13.1,13.4,9.3c45.3-2.7,67.9,2.3,67.9,2.3c-92.1,9.2-99.4,15.6-103,17.1
		c59.8-0.6,81.3,4,84.3,8.2"/>
</svg>
