<?xml version="1.0" encoding="utf-8"?>
<!-- Generator: Adobe Illustrator 22.0.1, SVG Export Plug-In . SVG Version: 6.00 Build 0)  -->
<svg version="1.1" id="Layer_1" xmlns="http://www.w3.org/2000/svg" xmlns:xlink="http://www.w3.org/1999/xlink" x="0px" y="0px"
	 viewBox="0 0 172.9 418" style="enable-background:new 0 0 172.9 418;" xml:space="preserve">
<style type="text/css">
	.st0{fill:none;stroke:#000000;stroke-width:4;stroke-linecap:round;stroke-linejoin:round;stroke-miterlimit:10;}
</style>
<path class="st0" d="M152.2,416c-3-4.2-24.5-8.8-84.3-8.2c3.6-1.5,10.9-7.9,103-17.1c0,0-22.6-5-67.9-2.3
	c-65.3,3.8-26.2-6.9-13.4-9.3c2.6-0.5,42.6-8.1,63.3-9.4c11.1-0.7-13.9-4.4-39.4-4.5c-26.3-0.1-43.6-0.5-42.9-1.8
	c1.5-2.9,51.6-15.8,90.9-17.6c0,0-18.8-1.3-56-0.5c-39.5,0.8-49.1,2-31.3-3.1c15-4.3,67.3-13.1,93.8-15c0,0-13.4-2.8-53.8-2
	c-45.3,1-59.5-0.3-43.6-4.4c36.8-9.4,69.6-13.6,95.7-16.4c0,0-27.9-2.9-58.1-1.1c-35.7,2.2-45.9,2.1-36.1-1.9s54.7-15.3,94.2-16.9
	c0,0-34.9,2.1-53.7-23.4c-7.1-9.6-14.3-26.2-21.9-56C75.9,147.4,75.5,93.1,75.5,93.1"/>
<path class="st0" d="M93.7,79.6c4.9,0,53.5-19.5,73.3-27.3"/>
<path class="st0" d="M79.6,62.1c0.5-1.6,13.8-56,14.8-60.1"/>
<path class="st0" d="M2,55.4c14.1,3.3,38.6,11.3,54.2,20"/>
<path class="st0" d="M55.9,98.3c-7.4,3.3-26,17.8-46.3,30.2"/>
<path class="st0" d="M98.3,100c0,0,18.5,15.5,49,29.4"/>
</svg>
