<?xml version="1.0" encoding="utf-8"?>
<!-- Generator: Adobe Illustrator 22.0.1, SVG Export Plug-In . SVG Version: 6.00 Build 0)  -->
<svg version="1.1" id="Layer_1" xmlns="http://www.w3.org/2000/svg" xmlns:xlink="http://www.w3.org/1999/xlink" x="0px" y="0px"
 viewBox="0 0 171.9 421.9" style="enable-background:new 0 0 171.9 421.9;" xml:space="preserve">

<path d="M137,285.5c1.2,0,2.4,0,3.6,0c0.3,0,0.5,0,0.8,0c1.2,0.2,2.4,0.1,3.6,0c1.1-0.1,2.3-0.1,3.4,0.1c1.1,0.2,2.2,0.1,3.3-0.1
c0.5-0.1,1-0.1,1.5,0.1c0.3,0.1,0.5,0,0.7-0.1c0.3-0.1,0.7-0.2,1-0.1c0.5,0.1,1,0.3,1.5,0.3c0.4,0.1,0.9,0,1.3,0.1
c0.2,0,0.3,0.1,0.5,0.2c0.3,0.1,0.5,0.1,0.7,0c0.5-0.4,1.1-0.5,1.7-0.4c0.3,0,0.5,0.1,0.8,0.1c0.5,0.1,1,0.2,1.5,0
c0.3-0.1,0.7-0.1,1-0.1c0.8,0.1,1.5,0.2,2.3,0.3c0.6,0.1,1,0.5,1,1c0,0.8,0,1.6,0.2,2.3c0.1,0.3-0.2,0.7-0.6,0.7
c-0.3,0-0.5,0.1-0.8,0.1c-0.4,0-0.9,0-1.3,0.1c-0.7,0.1-1.4,0.2-2.1,0.3c-0.7,0.1-1.4,0-2.1,0.1c-0.8,0-1.6,0.1-2.3,0.2
c-1.1,0.2-2.2,0.2-3.4,0.2c-0.4,0-0.9,0.1-1.3,0.1c-0.9,0.2-1.9,0.3-2.8,0.3c-0.6,0-1.2,0.1-1.8,0.2c-0.8,0.1-1.5,0.1-2.3,0.2
c-0.9,0.1-1.9,0.2-2.8,0.3c-0.9,0.1-1.9,0.1-2.8,0.4c-1.5,0.1-2.9,0.3-4.4,0.5c-0.6,0.1-1.2,0.1-1.8,0.2c-0.3,0.1-0.5,0.1-0.8,0.1
c-0.9,0.1-1.7,0-2.6,0.2c-0.8,0.2-1.7,0.3-2.6,0.4c-1.2,0.2-2.4,0.4-3.6,0.6c-0.4,0.1-0.8,0.2-1.3,0.2c-0.6,0-1.2,0.1-1.8,0.3
c-0.4,0.1-0.8,0.2-1.3,0.2c-3.3,0.4-3.3,0.4-7.1,1.2c-1.1,0.2-2.2,0.4-3.3,0.5c-0.2,0-0.3,0-0.5,0c-0.6,0-1.2-0.2-1.8,0
c-0.5,0.2-0.9,0.5-1.4,0.7c-0.2,0.1-0.5,0.2-0.7,0.2c-0.4,0-0.9,0-1.3,0c-0.3,0-0.7,0.1-1,0.2c-0.6,0.3-1.3,0.3-2,0.5
c-0.7,0.2-1.2,0-1.7-0.4c-0.2-0.2-0.5-0.1-0.7,0.2c-0.1,0.1-0.2,0.3-0.2,0.5c-0.1,0.2-0.2,0.3-0.4,0.4c-0.9,0.3-1.8,0.6-2.8,0.7
c-1,0.1-2,0.4-3,0.7c-0.6,0.2-1.2,0.3-1.8,0.4c-0.6,0-1.2,0.3-1.8,0.4c-0.3,0.1-0.5,0.1-0.7,0.2c-0.5,0.1-0.8,0-0.9-0.5
c0-0.2-0.1-0.3-0.2-0.5c-0.1-0.2-0.4-0.3-0.7-0.2c-0.2,0.1-0.2,0.2-0.2,0.4c0.1,0.2,0.1,0.3,0.2,0.5c0.1,0.2,0,0.3-0.1,0.5
c-0.2,0.3-0.5,0.4-0.9,0.6c-0.5,0.2-1,0.2-1.5,0.3c-0.4,0.1-0.8,0.2-1.3,0.3c-0.3,0.1-0.5-0.1-0.7-0.3c-0.4-0.3-0.4-0.3-0.7,0.2
c0,0.1-0.1,0.2-0.1,0.2c-0.1,0.2-0.3,0.4-0.6,0.4c-0.5,0.1-1,0.1-1.5,0.4c-1.3,0.6-2.8,0.9-4.2,1.2c-0.3,0.1-0.7,0.2-1,0.3
c-0.6,0.3-1.3,0.5-1.9,0.8c-0.2,0.1-0.2,0.3-0.2,0.4c0,0.2,0.1,0.3,0.3,0.4c0.2,0,0.3,0.1,0.5,0.1c1.2,0,2.4,0,3.6-0.1
c1.3-0.1,2.6-0.2,3.9,0c0.7,0.1,1.4-0.1,2.1,0c0.7,0.1,1.4,0,2-0.2c0.4-0.1,0.8-0.2,1.3-0.2c1.3,0,2.6-0.1,3.9-0.1
c0.3,0,0.7-0.1,1-0.1c1-0.2,2.1-0.2,3.1-0.1c0.7,0.1,1.4,0,2.1-0.1c0.5-0.1,1-0.2,1.5,0c0.5,0.2,1,0.2,1.5,0
c0.7-0.3,1.5-0.3,2.3-0.3c0.3,0,0.7,0,1,0.1c0.7,0.1,1.4,0,2.1-0.1c0.5-0.1,1-0.2,1.5-0.2c1.6-0.1,3.1-0.3,4.7-0.1
c0.3,0,0.7,0,1,0c1.2-0.2,2.4-0.1,3.6-0.3c0.4,0,0.9,0,1.3,0c1.4,0.2,2.8,0.1,4.1-0.1c0.3,0,0.5-0.1,0.8,0c0.7,0.2,1.4,0.1,2-0.1
c0.3-0.1,0.7-0.1,1-0.1c2.1,0,4.1,0,6.2,0c0.6,0,1.2,0,1.8-0.1c0.9-0.1,1.9-0.1,2.8,0c1,0.2,2.1,0.1,3.1,0.1
c1.6-0.1,3.1,0,4.7-0.1c0.1,0,0.2,0,0.3,0c1.2,0.3,2.4,0.1,3.6,0.1c0.9,0,1.7-0.1,2.6,0.1c0.3,0.1,0.7,0,1,0c0.9,0,1.7,0,2.6,0
c0.5,0,1,0,1.5,0.2c0.5,0.2,1,0.2,1.5,0.1c0.2,0,0.3-0.1,0.5-0.1c0.2,0,0.4,0,0.5,0c1.2,0.3,2.4,0,3.6,0.2
c1.5,0.2,2.9,0.3,4.4,0.5c0.5,0.1,1,0.1,1.5,0.3c0.4,0.2,0.8,0.4,0.9,0.8c0.1,0.4,0.3,0.8,0.4,1.2c0.1,0.2,0.1,0.5,0,0.8
c-0.1,0.4-0.2,0.8-0.3,1.2c-0.1,0.2-0.3,0.4-0.6,0.5c-1.1,0.2-2.2,0.6-3.3,0.5c-1.8,0.2-3.6,0.2-5.4,0.4c-0.6,0.1-1.2,0.1-1.8,0.1
c-1,0-2.1,0.1-3.1,0.3c-1,0.2-2.1,0.2-3.1,0.3c-0.7,0-1.4,0.1-2.1,0.2c-1.1,0.2-2.2,0.3-3.3,0.4c-2.3,0.3-4.6,0.6-7,0.6
c-0.3,0-0.5,0-0.8,0.1c-1.5,0.3-3.1,0.5-4.6,0.6c-0.9,0.1-1.7,0.1-2.6,0.3c-0.6,0.1-1.2,0.2-1.8,0.2c-0.5,0-1,0-1.6,0
c-0.4,0-0.8,0.3-1.3,0.2c-0.5-0.1-1,0-1.5,0.3c-0.2,0.2-0.5,0.2-0.7,0.2c-0.5,0-1,0.1-1.6,0.1c-0.4,0-0.9,0.1-1.3,0.2
c-0.2,0.1-0.5,0.2-0.8,0.2c-0.9,0-1.7,0.2-2.5,0.4c-0.3,0.1-0.7,0.1-1,0.2c-1.1,0.2-2.2,0.1-3.3,0.5c-1.1,0.3-2.2,0.3-3.3,0.6
c-0.1,0-0.2,0-0.3,0c-0.9,0.1-1.7,0.1-2.6,0.2c-0.7,0.3-1.5,0.5-2.2,0.6c-0.3,0.1-0.7,0-1-0.1c-0.2-0.1-0.5-0.1-0.7,0
c-0.7,0.6-1.6,0.7-2.4,0.7c-0.2,0-0.5-0.1-0.6-0.4c-0.1-0.2-0.1-0.5-0.2-0.7c-0.1-0.2-0.2-0.3-0.4-0.2c-0.2,0.1-0.3,0.1-0.4,0.2
c-0.1,0.1-0.2,0.3-0.2,0.5c0,0.6-0.4,0.9-1,1c-0.7,0.1-1.3,0.4-2,0.4c-0.2,0-0.3,0-0.5,0.1c-1.3,0.5-2.6,0.9-4,1
c-0.3,0-0.5,0.1-0.8,0.2c-1.4,0.3-2.8,0.8-4.3,0.9c-0.2,0-0.4,0-0.5,0.1c-1.4,0.6-3.1,0.6-4.5,1.1c-0.9,0.1-1.7,0.4-2.5,0.6
c-0.7,0.2-1.3,0.4-2,0.4c-0.4,0-0.6,0.2-1,0.3c-0.3,0.1-0.7,0.1-1-0.1c-0.1-0.1-0.3-0.2-0.4-0.3c-0.2-0.1-0.5,0-0.7,0.2
c-0.2,0.2-0.3,0.4-0.5,0.6c-0.4,0.4-0.8,0.6-1.4,0.6c-0.3,0-0.7-0.1-1-0.1c-0.2,0-0.3,0.1-0.5,0.1c-0.2,0.1-0.4,0.3-0.6,0.5
c-0.7,0.5-1.4,0.6-2.2,0.2c-0.2-0.1-0.4-0.3-0.7-0.3c-0.2,0-0.3,0.1-0.4,0.2c0,0,0,0.2,0.1,0.2c0.3,0.3,0.6,0.6,0.9,0.9
c0.2,0.2,0.5,0.3,0.7,0.3c0.4,0.1,0.9,0.1,1.3,0.1c1.2,0.1,2.4,0.1,3.6,0.2c0.8,0,1.6,0.1,2.3,0.1c0.9,0,1.7,0.2,2.6-0.1
c0.4-0.1,0.9-0.1,1.3,0c1.4,0.1,2.8,0.1,4.1,0c0.6,0,1.2,0,1.8,0c0.3,0,0.5,0.1,0.8,0c1-0.3,2-0.3,3.1-0.2
c0.9,0.1,1.9-0.1,2.8-0.1c0.9,0.1,1.9,0,2.8-0.2c0.6-0.1,1.2-0.1,1.8,0c0.3,0,0.5,0,0.8,0c1.1-0.2,2.2-0.1,3.4-0.1
c0.8,0,1.6,0.1,2.3-0.1c0.5-0.1,1-0.1,1.5,0c0.6,0.1,1.2,0.1,1.8,0c0.9-0.1,1.7-0.1,2.6-0.2c0.5,0,1,0,1.5,0.1
c0.7,0.1,1.4,0.1,2.1-0.1c0.2-0.1,0.5-0.1,0.8-0.1c1.3,0.2,2.6,0,3.9-0.1c0.4-0.1,0.9-0.1,1.3-0.1c0.9,0.3,1.9-0.1,2.8,0
c0.9,0.1,1.7,0,2.6,0.1c0.8,0,1.6,0,2.3-0.1c0.3,0,0.5-0.1,0.8-0.1c1.3,0,2.6,0.1,3.9,0c0.3,0,0.5,0,0.8,0
c1.6,0.2,3.3,0.1,4.9,0.1c0.2,0,0.3,0,0.5,0c0.9,0,1.9-0.2,2.8-0.1c0.9,0.1,1.7,0.1,2.6,0.1c0.9,0,1.9,0,2.9,0.1
c0.2,0,0.3,0,0.5,0c1.2,0,2.4-0.2,3.6,0c1.1,0.2,2.2,0.1,3.4,0.1c1,0,2.1,0,3.1,0.3c1.5,0,2.9,0.4,4.4,0.2c1.4,0,2.8,0.1,4.1,0.3
c0.7,0.1,1.4,0.2,2,0.3c0.7,0.2,1.4,0.2,2.1,0.2c0.2,0,0.3,0.1,0.5,0.1c0.3,0.1,0.6,0.4,0.7,0.7c0,0.1,0.1,0.2,0.1,0.2
c0.1,1,0,2.1-0.4,3c-0.2,0.4-0.5,0.7-1,0.7c-0.3,0.1-0.7,0.1-1,0.1c-0.6,0.1-1.2,0.1-1.8,0.2c-2.2,0.4-2.9,0.4-4.6,0.4
c-0.4,0-0.9,0-1.3,0.1c-0.9,0.2-1.7,0.3-2.6,0.3c-1.2,0-2.4,0.1-3.6,0.4c-0.3,0.1-0.5,0-0.8,0.1c-0.7,0.2-1.4,0.1-2-0.2
c-0.1,0-0.2-0.1-0.2-0.1c-0.2,0-0.3,0-0.5,0.2c-0.3,0.5-0.9,0.5-1.4,0.5c-1,0-1.9-0.2-2.7-0.7c-0.3-0.2-0.7-0.1-1,0.1
c-0.2,0.1-0.3,0.2-0.4,0.1c-0.3-0.3-0.7-0.4-1.1-0.6c-0.2-0.1-0.5-0.1-0.7,0c-0.5,0.4-1,0.2-1.5,0.3c-0.2,0-0.3,0.2-0.3,0.4
c0,0.2,0.1,0.3,0.1,0.5c0,0.2-0.1,0.3-0.2,0.4c-0.3,0.2-0.6,0.2-1,0c-0.2-0.1-0.4-0.2-0.7-0.1c-0.3,0.1-0.7,0.2-1,0.3
c-0.5,0.2-1,0.2-1.5-0.1c-0.1-0.1-0.3-0.1-0.5-0.2c-0.3-0.1-0.4-0.1-0.6,0.2c-0.1,0.2-0.2,0.5-0.4,0.7c-0.3,0.2-0.6,0.2-1,0.2
c-0.2,0-0.3-0.1-0.5-0.1c-0.1,0-0.2,0-0.3-0.1c-0.3-0.1-0.7,0-1,0.1c-0.4,0.1-0.8,0.3-1.2,0.5c-0.3,0.2-0.7,0.2-1,0.1
c-0.3,0-0.7-0.1-1-0.2c-0.4-0.1-0.7,0-1,0.1c-0.6,0.4-1.3,0.4-2,0.3c-0.3,0-0.5-0.1-0.8-0.1c-0.7-0.1-1.4-0.2-2-0.3
c-0.4-0.1-0.7,0.1-0.8,0.4c0,0.1,0,0.2-0.1,0.2c-0.1,0.1-0.3,0.2-0.4,0.3c-0.3,0-0.7,0-1,0c-0.3,0-0.6,0.2-1,0.2
c-0.2,0-0.4,0-0.5,0c-1.2,0.4-2.4,0.5-3.6,0.7c-0.3,0-0.5,0.1-0.8,0.1c-1,0.4-2,0.4-3.1,0.4c-0.4,0-0.9,0-1.3,0.2
c-0.1,0.1-0.3,0.1-0.5,0.1c-0.5-0.1-1-0.1-1.5,0.2c-0.5,0.3-1,0.3-1.5,0.2c-0.2-0.1-0.3,0-0.5,0c-0.6,0.2-1.2,0.3-1.8,0.2
c-0.5-0.1-0.8,0.1-1.2,0.3c-0.5,0.3-1.1,0.4-1.7,0.5c-0.2,0-0.3-0.1-0.5-0.1c-0.2-0.1-0.5-0.2-0.7-0.1c-0.9,0.3-1.8,0.6-2.8,0.6
c-0.3,0-0.5,0.1-0.7,0.2c-0.5,0.3-1.1,0.4-1.7,0.5c-0.7,0.1-1.4,0.2-2.1,0.3c-0.4,0-0.8,0.1-1.2,0.3c-0.6,0.3-1.3,0.4-2,0.5
c-1.1,0.1-2.2,0.2-3.3,0.5c-0.2,0-0.3,0.1-0.5,0.1c-0.8-0.1-1.5,0.2-2.3,0.4c-0.5,0.2-1,0.4-1.5,0.5c-0.5,0.1-1,0.1-1.5,0.2
c-0.4,0-0.9,0.1-1.3,0.1c-0.3,0-0.5,0.1-0.7,0.2c-1,0.5-2.1,0.8-3.2,1c-1,0.2-2,0.6-3,0.6c-0.4,0-0.8,0.2-1.2,0.4
c-0.2,0.2-0.2,0.5,0.1,0.6c0.2,0.1,0.3,0.2,0.5,0.2c2.9-0.1,5.9,0.1,8.8-0.2c0.3,0,0.7,0,1,0c0.4,0,0.9,0,1.3,0c2-0.2,4-0.3,6-0.2
c0.9,0.1,1.9,0,2.8-0.2c0.3-0.1,0.7-0.1,1-0.1c1.2,0.1,2.4-0.1,3.6-0.1c0.9,0,1.7,0,2.6-0.1c1.3-0.1,2.6-0.2,3.9-0.1
c2.1,0,4.1,0,6.2-0.2c0.5,0,1-0.1,1.6,0c0.9,0.1,1.7,0,2.6,0.2c0.9-0.1,1.9-0.1,2.8-0.1c0.9,0,1.7,0,2.6,0c0.9,0,1.7-0.1,2.6-0.1
c1,0,2.1-0.1,3.1,0c0.3,0,0.5,0,0.8,0c1-0.2,2.1-0.1,3.1-0.1c0.3,0,0.5,0.1,0.8,0c1.3-0.2,2.6,0,3.9,0.2c0.3,0,0.5,0.1,0.8,0
c0.6-0.1,1.2,0,1.8,0c0.6,0.1,1.2,0,1.8-0.1c0.9-0.2,1.9-0.2,2.8-0.1c0.9,0.1,1.7,0.1,2.6,0c0.1,0,0.2,0,0.3,0
c0.9-0.1,1.7,0.2,2.6,0.2c0.8,0,1.6-0.1,2.3,0.1c0.2,0.1,0.5,0.1,0.8,0c0.6-0.1,1.2-0.1,1.8,0c0.3,0.1,0.7,0,1,0
c0.4,0,0.9,0,1.3,0.1c0.5,0.2,1,0.2,1.5,0.2c0.8,0,1.6,0,2.3,0c1,0,1.9,0,2.8,0.2c0.6,0.1,1.2,0.1,1.8,0.2c0.3,0,0.7,0.2,1,0.4
c0.2,0.1,0.4,0.3,0.5,0.5c0.2,0.5,0.4,0.9,0.5,1.5c0,0.1,0,0.2,0,0.2c-0.3,0.5-0.6,1-1.3,1.2c-0.2,0.1-0.5,0.1-0.7,0.2
c-0.3,0.1-0.5,0.1-0.8,0c-0.7-0.3-1.3-0.4-2-0.3c-0.4,0.1-0.9,0-1.3-0.1c-0.5-0.1-0.9,0-1.2,0.4c-0.3,0.4-0.7,0.5-1.1,0.4
c-0.3-0.1-0.7-0.1-1,0.1c-0.3,0.1-0.7,0.3-1,0.2c-0.2-0.1-0.4-0.3-0.6-0.4c-0.2-0.1-0.5-0.1-0.7,0c-0.2,0.1-0.5,0.2-0.6,0.4
c-0.3,0.3-0.7,0.5-1.2,0.4c-0.3,0-0.7,0-1,0.1c-0.4,0.2-0.8,0.2-1.2,0.1c-0.2-0.1-0.5-0.1-0.7,0.1c-0.3,0.2-0.6,0.3-1,0.3
c-0.3,0-0.5,0-0.8-0.1c-0.4,0-0.9,0-1.3,0c-1.4,0.2-2.7,0.5-4.1,0.4c-0.5,0-1,0.1-1.5,0.2c-0.3,0.1-0.7,0.1-1,0.2
c-0.4,0-0.9,0-1.3-0.1c-0.3-0.1-0.7-0.2-1-0.3c-0.2-0.1-0.4,0.1-0.5,0.4c-0.1,0.5-0.1,0.5-0.4,0.6c-0.4,0.1-0.9,0.1-1.3,0.1
c-0.3,0-0.7,0-1,0c-0.7,0-1.4,0.2-2.1,0.1c-0.3,0.1-0.6,0.3-0.9,0.4c-0.3,0.2-0.6,0.2-1,0c-0.1,0-0.2-0.1-0.2-0.1
c-0.3-0.2-0.7-0.2-1,0c-0.4,0.2-0.8,0.2-1.2,0.1c-0.2-0.1-0.3,0-0.5,0.1c-0.4,0.4-0.9,0.5-1.4,0.2c-0.4-0.2-0.8-0.1-1.3,0.1
c-0.2,0.1-0.5,0.2-0.7,0.4c-0.4,0.2-0.8,0.4-1.2,0.4c-0.4,0-0.9,0.1-1.3,0.1c-0.2,0-0.3-0.1-0.5-0.1l-0.2-0.1l0.2,0
c-0.4,0.3-0.9,0.6-1.4,0.5c-0.2,0-0.3,0-0.5,0c-0.4,0-0.9,0-1.3,0.2c-0.4,0.2-0.8,0.3-1.2,0.3c-0.6-0.1-1.2,0-1.8,0.1
c-0.7,0.2-1.4,0-2.1,0.1c-0.3,0-0.7,0.1-1,0.3c-0.3,0.2-0.6,0.2-0.9,0c-0.1-0.1-0.3-0.1-0.5-0.2c-0.3-0.1-0.5-0.1-0.7,0.1
c-0.2,0.2-0.4,0.4-0.6,0.5c-0.3,0.2-0.6,0.2-1,0.3c-0.8,0.1-1.5,0.2-2.3,0.1c0-0.3,0.1-0.5,0.2-0.7c0.1-0.3-0.1-0.5-0.4-0.5
c-0.4,0-0.6,0.2-0.7,0.6c0,0.2,0.1,0.3,0.2,0.4c0.2,0.1,0.5,0.1,0.7,0.1c0,0.1-0.1,0.2-0.1,0.2c-0.5,0.3-1.1,0.5-1.7,0.4
c-0.3-0.1-0.5,0-0.8,0.1c-0.3,0.2-0.7,0.1-1,0c-0.2-0.1-0.5-0.1-0.7,0c-0.2,0.1-0.5,0.2-0.7,0.3c-0.3,0.1-0.3,0-0.6-0.3
c-0.4-0.5-0.6-0.4-0.9,0.2c-0.1,0.4-0.4,0.6-0.7,0.7c-0.1,0-0.2,0-0.3,0c-0.3,0.1-0.5,0.1-0.8,0.2c-0.8,0.3-1.6,0.6-2.5,0.7
c-0.2,0-0.5,0.1-0.7,0.2c-0.9,0.4-1.8,0.5-2.8,0.4c-0.6,0-1.2,0.1-1.8,0.3c-0.8,0.4-1.6,0.5-2.5,0.7c-0.1,0-0.2,0-0.3,0
c-0.4-0.1-0.8,0-1.2,0.2c-0.2,0.1-0.5,0.2-0.7,0.3c-0.7,0.2-1.4,0.2-2-0.2c-0.2-0.1-0.5,0-0.7,0.1c-0.1,0.1-0.1,0.1-0.2,0.2
c-0.1,0.1-0.2,0.3-0.3,0.4c-0.2,0.3-0.5,0.5-0.9,0.5c-0.3,0.1-0.7,0.1-1,0.1c-0.3,0-0.7,0.1-1,0.3c-0.7,0.4-1.4,0.6-2.2,0.6
c-0.3,0-0.4,0.3-0.5,0.5c-0.1,0.2,0,0.3,0.2,0.4c0.1,0,0.1,0.1,0.2,0.1c0.2,0,0.3,0.1,0.5,0.1c1.9,0,3.8,0.2,5.7,0.2
c1,0,1.9,0,2.8,0.3c0.3,0.1,0.7,0.1,1,0c0.6-0.2,1.2-0.2,1.8-0.2c1.8,0.1,3.6,0,5.4,0c0.5,0,1,0,1.5-0.1c2.1-0.2,4.1-0.1,6.2-0.1
c0.7,0.1,1.4,0.1,2.1,0.1c0.4,0,0.9,0,1.3,0.1c0.2,0,0.3,0.1,0.5,0c1.5-0.3,2.9-0.2,4.4-0.2c0.4,0,0.9,0,1.3,0
c0.3,0,0.5-0.1,0.8,0c1.5,0.3,2.9,0,4.4,0.1c0.5,0,1-0.1,1.5-0.2c0.5-0.1,1-0.1,1.5,0.1c0.8,0.2,1.5,0.2,2.3,0.3
c1.3,0.1,2.6,0,3.9,0.2c0.2,0,0.3,0,0.5,0c1.6-0.1,3.1,0,4.7,0c0.3,0,0.5-0.1,0.8,0c1,0.3,2.1,0.1,3.1,0.2c0.5,0,1,0.2,1.4,0.6
c0.2,0.2,0.5,0.2,0.7,0.1c0.5-0.3,1.1-0.5,1.7-0.5c0.8,0,1.5,0,2.3,0.1c1,0.1,2,0.3,3.1,0.2c1.5,0.3,3.1,0.2,4.6,0.2
c0.5,0,1,0,1.5,0.1c0.9,0.2,1.9,0.3,2.8,0.4c0.5,0.1,1,0.2,1.2,0.8c0.1,0.3,0.4,0.3,0.7,0.2c0.2-0.1,0.4-0.2,0.7-0.4
c0.2-0.1,0.5-0.2,0.8-0.1c0.7,0.1,1.4,0.3,2,0.4c0.3,0.1,0.5,0.3,0.5,0.5c0.1,0.4,0.3,0.8,0.5,1.2c0.3,0.3,0.2,0.6,0.1,1
c0,0.2,0.1,0.5,0.1,0.8c0,0.3,0.1,0.5-0.1,0.7c-0.2,0.3-0.5,0.5-0.8,0.6c-0.1,0-0.2,0-0.3,0.1c-0.3,0-0.5,0-0.8,0.1
c-0.9,0.2-1.7,0-2.5-0.4c-0.2-0.1-0.5,0-0.6,0.3c-0.1,0.1-0.1,0.1-0.1,0.2c-0.3,0.4-0.5,0.4-0.8-0.1c-0.1-0.1-0.1-0.3-0.3-0.4
c-0.1-0.1-0.3-0.2-0.5-0.1c-0.6,0.4-1.3,0.4-2,0.4c-0.4,0-0.7,0.2-0.8,0.5c-0.1,0.1-0.2,0.3-0.3,0.4c-0.1,0.1-0.3,0.2-0.4,0.3
c-1.2,0.2-2.4,0.4-3.6,0.2l0.1,0.1c0-0.2-0.1-0.4-0.1-0.6c0.5,0.1,0.6,0,0.6-0.1c0,0-0.1-0.1-0.2-0.1c-0.1,0.1-0.3,0.2-0.4,0.3
c-0.6-0.2-1.2-0.1-1.6,0.5c-0.1,0.2-0.3,0.2-0.5,0.1c-0.5-0.1-0.8,0.2-1.2,0.3c-0.3,0.1-0.5,0-0.7-0.1c-0.1-0.1-0.1-0.1-0.2-0.2
c-0.4-0.2-0.6-0.2-0.8,0.2c-0.3,0.4-0.4,0.5-0.8,0.4c-0.2-0.1-0.3-0.1-0.5-0.2c-0.2-0.1-0.3-0.1-0.5,0.1c-0.3,0.2-0.6,0.4-0.9,0.5
c-0.4,0.1-0.8,0.2-1.3,0.1c-0.3,0-0.5-0.1-0.8-0.1c-0.3-0.1-0.3-0.1-0.8-0.6c-0.4-0.4-1.1-0.3-1.4,0c-0.1,0.1-0.2,0.3-0.3,0.4
c-0.4,0.5-1,0.7-1.6,0.5c-0.2,0-0.3-0.1-0.5-0.2c-0.4-0.2-0.8-0.1-1.2,0.2c-0.2,0.2-0.4,0.4-0.6,0.4l0.1,0.1
c-0.2-0.2-0.4-0.3-0.6-0.5c-0.2-0.1-0.3-0.1-0.5,0c-0.2,0.1-0.4,0.3-0.7,0.4c-0.4,0.3-0.9,0.4-1.5,0.4c-0.3,0-0.5-0.1-0.7-0.3
c-0.2-0.3-0.5-0.5-0.8-0.6c-0.4-0.1-0.8-0.4-1.2-0.5c-0.2-0.1-0.5,0.1-0.5,0.4c0,0.4,0,0.7,0.2,1c0.1,0.2,0.1,0.3-0.1,0.4
c-0.1,0-0.2,0.1-0.2,0c-0.5-0.2-0.9-0.5-1.5-0.4c-0.4,0-0.9-0.1-1.3,0c-0.3,0-0.5,0.1-0.7,0.2c-0.4,0.2-0.8,0.2-1.3,0.2
c-0.2,0-0.4,0-0.5,0.1c-0.1,0.1-0.1,0.3-0.1,0.5c0,0.4-0.5,0.5-0.8,0.3c-0.2-0.1-0.2-0.3-0.2-0.4c0.1-0.4,0.5-0.7,0.7-1.1
c0.3-0.5,0-1.1-0.6-1.2c-0.2,0-0.6,0.2-0.6,0.4c0,0.1,0,0.2,0,0.2c0.1,0.4,0,0.7-0.2,1c-0.1,0.2-0.3,0.4-0.5,0.6
c-0.7,0.4-1.6,0.7-2.3,1.2c-0.6,0.4-1.3,0.4-2,0c-0.2-0.1-0.3-0.1-0.5,0c-0.3,0.2-0.6,0.4-0.9,0.4c-0.4,0.1-0.8,0-1-0.5
c-0.1-0.2-0.2-0.5-0.2-0.7c-0.1-0.3-0.3-0.4-0.6-0.4c-0.3,0-0.5,0-0.8,0.1c-0.1,0.1-0.3,0.2-0.3,0.4c-0.1,0.2,0,0.3,0.2,0.4
c0.2,0.1,0.5,0.1,0.7,0.4c-0.1,0.2-0.2,0.5-0.2,0.7c-0.1,0.2-0.2,0.3-0.4,0.3c-0.5,0-1,0.1-1.5,0.4c-0.2,0.1-0.5,0.2-0.7,0.2
c-0.6,0-1.2,0.1-1.8,0.3c-0.2,0.1-0.5,0-0.7-0.1c-0.2-0.1-0.3-0.1-0.5,0c-0.5,0.4-1.1,0.6-1.7,0.6c-0.5,0.1-1,0.2-1.5,0.4
c-0.3,0.1-0.7,0.1-1,0c-0.3,0-0.5-0.1-0.8,0c-0.7,0.2-1.4,0.2-2,0.2c-0.5,0-0.8,0.2-1.1,0.5c-0.2,0.3-0.6,0.3-0.9,0.3
c-0.5,0-1-0.1-1.4-0.5c-0.2-0.2-0.3-0.2-0.6,0.1c-0.1,0.1-0.1,0.2-0.1,0.2c-0.1,0.1-0.3,0.2-0.5,0.2c-0.6,0-1.2,0.1-1.7,0.5
c-0.4,0.3-0.8,0.3-1.2,0.1c-0.1,0-0.2,0-0.2-0.1c-0.6-0.2-1.2,0-1.6,0.5c-0.2,0.2-0.4,0.3-0.7,0.2c-0.7-0.3-1.3-0.3-2,0.1
c-0.1,0-0.2,0.1-0.2,0.1c-0.4,0.1-0.5,0.4-0.7,0.7c-0.2,0.5-0.5,0.6-1,0.3c-0.3-0.2-0.6-0.3-0.9-0.5c-0.3-0.2-0.7-0.1-0.9,0.3
c-0.1,0.2-0.2,0.5-0.4,0.7c0,0.1-0.1,0.1-0.2,0.2c-0.7,0.2-1.3,0.4-2,0.6c-0.9,0-1.7,0.4-2.4,0.8c-0.1,0-0.2,0.1-0.2,0.1
c-0.4,0.1-0.8,0.2-1.2-0.1c-0.7-0.4-1.3-0.2-1.9,0.2c-0.1,0.1-0.2,0.3-0.2,0.4c0,0.3,0,0.5,0,0.8c0.1,0.4,0.5,0.8,0.9,0.9
c0.3,0.1,0.7,0.1,1,0.1c2.9,0,5.7,0.1,8.6,0.1c1.2,0,2.4-0.1,3.6,0.1c0.4,0.1,0.9,0,1.3-0.1c1-0.3,2.1-0.2,3.1-0.2
c0.8,0,1.6,0,2.3-0.1c1.3,0.2,2.6-0.1,3.9,0c0.3,0,0.7,0,1,0c0.8-0.1,1.5-0.2,2.3-0.3c0.7,0,1.4,0.1,2.1,0
c0.9-0.1,1.7-0.1,2.6-0.1c1.5,0.1,2.9,0,4.4-0.1c0.3,0,0.7-0.1,1,0c1,0.3,1.9,0,2.8,0c0.9,0,1.9-0.1,2.9,0c1,0,1.9-0.1,2.8-0.2
c0.5,0,1-0.1,1.5,0.1c1.2,0.3,2.4,0.2,3.6,0.2c1.5-0.3,3.1-0.2,4.7-0.2c1,0,1.9,0.1,2.9,0.1c1.5,0,2.9,0,4.4,0.1c0.3,0,0.7,0,1,0
c1.1,0,2.2,0.1,3.4,0c2.2-0.1,4.3,0.1,6.5,0c0.3,0,0.7-0.1,1,0c1.9,0.3,3.8,0.1,5.7,0.3c1.1,0.1,2.2,0.2,3.4,0.1
c0.3,0,0.7,0,1,0.1c0.8,0,1.5,0.1,2.3,0.1c0.3,0,0.7,0,1,0.1c0.5,0.1,1,0.1,1.5,0.1c0.3,0,0.5,0,0.8,0.1c1,0.4,2,0.3,3.1,0.3
c0.7-0.1,1.4,0.1,2.1,0.1c0.7-0.1,1.4,0.1,1.9,0.6c0.1,0.1,0.3,0.1,0.5,0.1c0.2-0.1,0.5-0.2,0.7-0.2c0.8,0,1.6,0.1,2.3,0.3
c0.2,0.1,0.5,0.2,0.7,0.3c0.5,0.2,0.8,0.6,0.9,1.2c0.1,0.8,0,1.6-0.1,2.3c0,0.3-0.4,0.6-0.7,0.7c-0.3,0.1-0.5,0.1-0.8,0.2
c-0.3,0.1-0.5,0.1-0.8,0.1c-0.9,0-1.7,0.3-2.6,0.3c-0.7-0.1-1.4,0-2.1,0.2c-0.2,0.1-0.5,0.1-0.8,0.1c-1.1-0.2-2.2,0-3.4,0.2
c-1,0.2-2,0.2-3.1,0.2c-0.9-0.1-1.7-0.1-2.6,0.2c-0.2,0.1-0.3,0.1-0.5,0c-1.3-0.1-2.6,0.2-3.9,0.4c-0.3,0.1-0.7,0.1-1,0.1
c-0.6-0.1-1.2-0.1-1.8,0c-0.4,0.1-0.9,0.1-1.3,0.2c-1.2,0.2-2.4,0.4-3.6,0.4c-0.3,0-0.7,0-1,0c-1.5,0.2-3.1,0.4-4.6,0.4
c-0.2,0-0.3,0-0.5,0.1c-1,0.3-2,0.3-3.1,0.4c-0.5,0-1,0.1-1.5,0.1c-0.8,0.1-1.5,0.2-2.3,0.2c-0.1,0-0.2,0-0.3,0
c-0.8,0.1-1.5,0.2-2.3,0.3c-0.8,0.1-1.6,0.1-2.3,0.2c-0.3,0-0.5,0.1-0.8,0.2c-0.4,0.1-0.9,0.1-1.3,0c-0.4-0.1-0.9-0.1-1.3,0.1
c-0.7,0.3-1.5,0.4-2.3,0.4c-0.7,0-1.4,0-2,0.2c-0.2,0.1-0.5,0.1-0.8,0.1c-1.2,0-2.4,0.2-3.6,0.4c-0.3,0.1-0.7,0.1-1,0.1
c-0.9,0.1-1.7,0.1-2.6,0.3c-0.7,0.2-1.5,0.1-2.3,0.4c-0.2,0.1-0.5,0.1-0.8,0.2c-1.1,0.2-2.2,0.3-3.3,0.4c-1,0.1-2,0.4-3.1,0.4
c-0.5,0-1,0.2-1.5,0.3c-0.4,0.1-0.8,0.2-1.3,0.2c-1.3,0.1-2.6,0.4-3.8,0.6c-0.3,0.1-0.7,0.2-1,0.2c-1.8,0.1-3.6,0.5-5.3,1
c-0.4,0.1-0.9,0.1-1.3,0.1c-0.7,0-1.4,0.1-2,0.4c-0.7,0.3-1.5,0.4-2.3,0.5c-0.3,0-0.7,0.1-1,0.2c-0.7,0.2-1.3,0.3-2,0.4
c-0.9,0.2-1.8,0.5-2.8,0.7c-0.9,0.1-1.7,0.5-2.5,0.7c-0.1,0-0.1,0.1-0.2,0.2c-0.1,0.1-0.2,0.3-0.1,0.5c0.1,0.2,0.2,0.3,0.4,0.3
c0.3,0,0.5-0.1,0.7-0.2c0.4-0.2,0.8-0.3,1.3-0.2c0.7,0.2,1.3,0.2,2,0.1c1.4-0.2,2.8-0.1,4.1,0c0.5,0,1,0,1.6,0.1
c0.3,0,0.7,0,1-0.1c0.4-0.2,0.8-0.1,1.3,0c0.5,0.2,1,0.2,1.5,0.2c0.3,0,0.7,0,1-0.1c0.8-0.3,1.7-0.2,2.6-0.2
c0.7,0.1,1.4-0.1,2.1-0.1c1.4,0,2.8,0,4.1,0.3c0.3,0.1,0.7,0,1-0.1c0.8-0.2,1.5-0.3,2.3-0.2c0.9,0.1,1.9,0,2.8,0.2
c0.3,0.1,0.7,0,1,0c0.9-0.1,1.7-0.1,2.6,0c1.3,0.2,2.6,0.2,3.9,0.1c1-0.1,2.1,0,3.1,0.2c0.7,0.1,1.4,0.1,2.1,0.1
c1.5,0,2.9,0.1,4.4,0.1c0.6,0,1.2,0.1,1.8,0.1c0.3,0,0.7,0.1,1,0.2c0.2,0.1,0.5,0.2,0.8,0.2c0.9,0,1.7,0.1,2.6,0.2
c0.6,0,1.2,0.1,1.8,0.3c0.6,0.1,1.2,0.2,1.8,0.3c1.2,0.1,2.4,0.2,3.6,0.5c1.1,0.3,2.2,0.4,3.3,0.3c0.3,0,0.5,0,0.8,0
c1.3,0.4,2.7,0.3,4.1,0.6c1.1,0.2,2.2,0.5,3.3,0.8c1.1,0.3,2.1,0.7,3.3,0.8c0.8,0.1,1.4,0.6,2.2,0.7c0.6,0.4,1.2,0.7,1.7,1.1
c0.6,0.5,1,1.2,0.8,2.1c0,0.2-0.1,0.3-0.1,0.5c-0.2,0.7-0.2,0.9-0.1,1.7c0,0.2-0.1,0.4-0.3,0.3c-0.3-0.1-0.7-0.2-1-0.3
c-0.3-0.1-0.5-0.2-0.6-0.4c-0.3-0.6-0.8-1.1-1.5-1.4c-0.5-0.2-0.9-0.5-1.4-0.7c-0.3-0.2-0.6-0.3-1-0.3c-0.6-0.1-1.2-0.3-1.8-0.4
c-0.3-0.1-0.6-0.2-1-0.4c-0.2-0.1-0.5-0.2-0.7-0.2c-0.4,0-0.9,0-1.3-0.2c-1.1-0.5-2.3-0.8-3.5-0.9c-0.3,0-0.7-0.1-1-0.3
c-0.3-0.2-0.7-0.1-1,0.1c-0.4,0.2-0.6,0.2-0.9-0.2c-0.3-0.4-0.7-0.8-1.1-1c-0.2-0.1-0.5-0.1-0.7,0.1c0,0.1-0.1,0.2-0.1,0.2
c-0.1,0.2-0.2,0.3-0.4,0.2c-0.2,0-0.2-0.2-0.2-0.4c-0.1-0.6-0.3-0.7-0.9-0.5c-0.3,0.1-0.7,0.2-1,0.3c-0.2,0.1-0.3,0.2-0.5,0.2
c-0.2,0.1-0.3,0.1-0.5,0.1c-0.5-0.1-1-0.1-1.5,0.1c-0.2,0.1-0.3,0-0.5-0.1c-0.3-0.2-0.6-0.3-1-0.3c-1,0.1-1.9-0.1-2.8,0
c-0.2,0-0.4,0-0.5-0.1c-0.8-0.4-1.7-0.1-2.5-0.4c-0.4-0.2-0.9,0-1.3,0.1c-0.2,0-0.3,0-0.5,0c-0.5-0.2-0.9-0.5-1.4-0.7
c-0.5-0.2-1-0.3-1.5,0c-0.4,0.2-0.8,0.3-1.2,0.3c-0.2,0-0.3,0-0.5,0c-0.6,0-1.2,0.2-1.8,0.1c-0.5-0.1-1-0.1-1.6,0
c-0.8,0-1.5,0-2.3-0.2c-0.7-0.2-1.4,0-2-0.2c-0.3,0-0.5,0-0.8,0.1c-0.7,0.2-1.4,0.2-2-0.1c-0.1-0.1-0.4-0.1-0.5,0
c-0.5,0.2-1,0.2-1.5,0c-0.1,0-0.2,0-0.3,0c-0.8,0.3-1.5,0.2-2.3,0.1c-1,0-2.1-0.1-3.1-0.1c-1.5,0-2.9,0.1-4.4-0.1
c-0.7,0.2-1.4,0-2.1,0c-0.2,0-0.3,0-0.5,0c-0.5,0.1-1,0.2-1.5,0.3c-0.5,0-1-0.2-1.5-0.2c-0.3,0-0.5,0-0.8,0
c-0.7,0.1-1.4,0.1-2.1,0c-1-0.2-2.1-0.1-3.1,0.1c-1,0.2-2.1,0.2-3.1,0.1c-0.9-0.1-1.7-0.1-2.6-0.1c-0.8,0-1.6,0-2.3,0
c-0.6,0-1.2-0.1-1.8,0c-0.1,0-0.2,0-0.3,0c-1.5-0.2-2.9-0.2-4.4-0.2c-0.5,0-1-0.2-1.5-0.4c-0.1,0-0.2-0.1-0.2-0.1
c-0.4-0.2-0.7-0.6-0.8-1c-0.1-0.2-0.1-0.3-0.1-0.5c-0.1-0.6,0.1-1,0.5-1.4c0.2-0.2,0.3-0.4,0.7-0.3c0.3,0.1,0.5,0.1,0.8,0.1
c0.3,0,0.5-0.1,0.7-0.2c0.2-0.2,0.4-0.4,0.5-0.6c0.1-0.2,0.2-0.5,0.5-0.5c0.2,0,0.2,0.1,0.4,0.6c0,0.1,0,0.2,0.1,0.2
c0.1,0.2,0.2,0.3,0.4,0.2c0.1,0,0.1-0.1,0.1-0.2c0.1-0.5,0.1-1,0.2-1.5c0-0.2,0.4-0.4,0.6-0.3c0.1,0.1,0.2,0.2,0.4,0.3
c0.6,0.5,1.2,0.3,1.5-0.3c0-0.5,0.4-0.7,0.8-0.9c0.2-0.1,0.3,0,0.5,0.2c0.1,0.2,0.1,0.3,0,0.4c-0.1,0.1-0.2,0.2-0.4,0.4
c-0.2,0.2-0.1,0.5,0.2,0.7c0.3,0.2,0.7,0.1,0.9-0.2c0.1-0.2,0.2-0.5,0.3-0.7c0.1-0.1,0.2-0.3,0.4-0.3c0.6-0.3,1.1-0.3,1.7-0.1
c0.4,0.1,0.7,0,0.9-0.3c0.2-0.3,0.5-0.4,0.9-0.4c0.4,0,0.6-0.2,0.8-0.5c0.1-0.2,0.3-0.4,0.5-0.6l0-0.1c0,0.3,0.1,0.5,0.3,0.7
c0.3,0.4,0.9,0.5,1.4,0.3c0.1,0,0.1-0.1,0.1-0.2c0-0.2-0.1-0.5-0.2-0.7l0,0.1c0.4,0,0.9,0,1.3,0c0.3,0,0.6-0.2,0.8-0.6
c0.1-0.3,0.3-0.6,0.6-0.8c0.1,0,0.1-0.1,0.2-0.1c0.3-0.1,0.5,0,0.7,0.1c0.2,0.1,0.2,0.3-0.1,0.6c-0.1,0.2-0.3,0.4-0.2,0.6
c0.1,0.1,0.3,0.1,0.5,0.1c0.2,0,0.3,0,0.5,0c0.1,0,0.2,0,0.2,0.1c0.2,0,0.2,0.1,0,0.2c0,0-0.1-0.1-0.1-0.1
c0.1-0.1,0.1-0.3,0.2-0.4c0.3-0.2,0.4-0.5,0.6-0.9c0.1-0.3,0.4-0.4,0.6-0.2c0.1,0.1,0.1,0.1,0.2,0.2c0.5,0.4,0.6,0.5,1.1,0.2
c0.3-0.2,0.6-0.3,1-0.3c1,0.1,1.9-0.1,2.8-0.1c0.1,0,0.3-0.1,0.4-0.2c0.3-0.3,0.6-0.3,0.9-0.1c0.1,0.1,0.3,0.2,0.4,0.2
c0.3,0,0.7-0.1,1-0.1c0.4,0,0.9-0.1,1.2-0.3c0.7-0.5,1.6-0.6,2.3-1c0.6,0.1,1.1,0.3,1.6,0.3c0.4,0.1,0.7,0,0.9-0.3
c0.2-0.2,0.4-0.4,0.5-0.6c0.4-0.7,1.1-0.8,1.8-0.8c0.2,0,0.3,0,0.5,0.1c0.5,0.3,0.9,0.8,1.5,0.9c0.2,0,0.3,0,0.5-0.2
c0.1-0.1,0.1-0.3,0-0.5c-0.1-0.2-0.2-0.3-0.4-0.4c-0.1,0-0.1-0.1-0.2-0.2c-0.1-0.2-0.1-0.3,0-0.4c0.1-0.1,0.1-0.1,0.2-0.1
c0.3,0,0.5,0,0.8,0c0.4,0.1,0.8,0.3,1.2,0.4c0.2,0,0.2,0,0,0.1c0,0-0.1-0.1-0.1-0.1c0.3-0.4,0.7-0.4,1.2-0.3
c0.3,0.1,0.5,0,0.7-0.1c0.1,0,0.1-0.1,0.2-0.2c0.3-0.5,0.7-0.6,1.3-0.5c1,0.3,2,0.2,3.1,0.1c0.3,0,0.4-0.2,0.6-0.4
c0.3-0.2,0.9-0.1,1.1,0.3c0.1,0.2,0.2,0.5,0.3,0.7c-0.3,0.1-0.5,0.2-0.5,0.6l-0.2,0l0.1-0.1c0.3-0.1,0.4-0.2,0.5-0.5
c0.3,0.1,0.5,0,0.6-0.3c0.1-0.3,0.2-0.6,0.5-0.9c0.1-0.1,0.1-0.1,0.2-0.1c0.8-0.1,1.6-0.3,2.1-0.6c0.4-0.2,0.6-0.1,0.9,0.2
c0.4,0.4,0.4,0.4,1.1,0c0.1-0.1,0.3-0.1,0.5-0.1c0.1,0,0.2,0,0.3,0c0.4,0.1,0.7,0,1-0.2c0.3-0.2,0.6-0.3,1-0.3
c0.8,0.2,1.5,0,2.3,0.1c0.3,0,0.5-0.1,0.7-0.2c0.3-0.2,0.6-0.4,0.9-0.6c0.2-0.1,0.3-0.1,0.5,0.4c0.1,0.2,0.1,0.3,0.3,0.4
c0.2,0.1,0.5-0.1,0.6-0.4c0-0.1,0-0.2,0.1-0.2c0.1-0.3,0.3-0.5,0.5-0.5c0.5,0,1,0.1,1.5-0.3c0.1-0.1,0.3-0.2,0.5-0.1
c0.6,0.1,1.2,0,1.8-0.3c0.3-0.1,0.7-0.2,1-0.2c1,0,1.9-0.1,2.8-0.3c0.4-0.1,0.8,0.1,1.3,0.1c0.4,0,0.6,0.1,0.9,0.4
c0.1,0.1,0.3,0.2,0.5,0.2c0.4,0,1.2-0.2,1.4-0.6c0.2-0.3,0.4-0.5,0.7-0.8c0.1-0.1,0.3-0.2,0.5-0.2c0.4,0.1,0.8,0.1,1.1-0.3
c0.3-0.3,0.6-0.6,0.9-0.9c0.2-0.2,0-0.8-0.3-0.8c-0.2,0-0.5-0.1-0.8,0c-0.3,0.1-0.6,0.3-0.9,0.5c-0.3,0.2-0.6,0.2-1-0.1
c-0.1-0.1-0.3-0.2-0.4-0.3c-0.1,0-0.2-0.1-0.2-0.1c-0.2,0.1-0.2,0.2-0.1,0.4c0.2,0.5,0,0.9-0.6,0.7c-0.2-0.1-0.5-0.1-0.7-0.2
c-0.6,0.2-1.2-0.2-1.8-0.2c-0.1,0-0.2,0-0.2,0.1c-0.3,0.1-0.5,0-0.5-0.3c-0.1-0.8,0.1-1.1,1-1.1c0.2,0,0.3,0,0.4-0.2
c0.1-0.3-0.1-0.5-0.3-0.6c-0.1,0-0.2,0-0.2-0.1c-0.1,0-0.2,0-0.3,0c-0.4-0.1-0.7,0.1-0.9,0.4c-0.2,0.3-0.3,0.6-0.5,0.9
c-0.4,0.4-0.6,0.8-1,1.1c-0.1,0-0.2,0-0.2,0c-0.1,0-0.2-0.1-0.2-0.2c0.1-0.5,0-0.8-0.5-1.1c-0.3-0.1-0.8-0.1-0.9,0.2
c-0.2,0.3-0.4,0.5-0.6,0.8l0.1-0.1c-0.1-0.1-0.1-0.1-0.2-0.2c-0.3-0.2-0.5-0.4-0.9-0.2c-0.4,0.2-0.8,0.2-1.3,0.2
c-0.2,0-0.4,0-0.5-0.1c-0.4-0.4-0.9-0.8-1.5-0.9c-0.1,0-0.3,0-0.5,0.1c-0.1,0.1-0.3,0.2-0.4,0.3c-0.2,0.3-0.5,0.5-0.9,0.5
c-0.9,0.1-1.9,0.1-2.8-0.4c-0.2-0.1-0.5-0.1-0.7,0c-0.5,0.3-0.8,0-1.1-0.4c-0.2-0.3-0.6-0.4-0.9-0.3c-0.1,0-0.2,0-0.2,0.1
c-0.2,0.1-0.3,0.1-0.5,0.2c-0.3,0.1-0.4,0.3-0.5,0.5c-0.3,0.5-0.3,0.5-1,0c-0.2-0.2-0.4-0.3-0.7-0.2c-0.3,0.1-0.5,0-0.7-0.2
c-0.2-0.2-0.3-0.4-0.6-0.5c-0.2-0.1-0.6,0-0.6,0.2c0,0.2,0,0.3-0.1,0.5c0,0.1,0,0.2,0,0.3c-0.1,0.3-0.5,0.6-0.8,0.5
c-0.7-0.4-1.3-0.4-2-0.1c-0.2,0.1-0.3,0.1-0.5,0.2c-0.6,0.3-1.1,0.3-1.8,0.3c-0.2,0-0.5,0.1-0.7,0.2c-0.4,0.1-0.4,0.1-0.5-0.3
c-0.1-0.7-0.5-0.9-1.1-0.8c-0.3,0-0.7,0-1,0c-0.4-0.1-0.6,0.2-0.7,0.6c-0.1,0.2-0.2,0.3-0.4,0.3c-0.3,0-0.7,0-1-0.1
c-0.3-0.1-0.7-0.2-1-0.1c-0.7,0.1-1.4,0.2-2,0.3c-1,0.2-1.9,0-2.7-0.6c-0.2-0.2-0.4-0.3-0.7-0.4c-0.2-0.1-0.3,0-0.5,0.1
c-0.1,0.1-0.2,0.3-0.1,0.5c0.3,0.5,0.2,0.7-0.3,0.7c-0.3,0-0.7-0.1-1-0.1c-0.3,0-0.5-0.1-0.8,0c-0.9,0.2-1.9,0.2-2.8,0
c-0.3-0.1-0.7,0-1,0.2c-0.5,0.3-1,0.2-1.5,0c-0.2-0.1-0.3-0.1-0.5-0.2c-0.4-0.2-0.8-0.2-1.3-0.1c-0.3,0.1-0.7,0.1-1,0.2
c-1,0.3-2.1,0.3-3.1,0.5c-0.6,0.1-1.2,0.2-1.8,0c-1.2-0.3-2.4-0.2-3.6-0.2c-1.2,0.1-2.4,0.2-3.6,0c-1,0.1-2.1,0-3.1,0.1
c-0.9,0.1-1.7,0.1-2.6-0.2c-1.2-0.4-2.4-0.4-3.6-0.3c-0.4,0.1-0.9,0-1.3-0.1c-0.3-0.1-0.6-0.3-0.9-0.4c-0.5-0.2-0.8-0.6-0.6-1.2
c0.1-0.3-0.1-0.5-0.3-0.6c-0.1-0.1-0.3-0.2-0.4-0.3c-0.3-0.3-0.3-0.6-0.1-0.9c0.1-0.2,0.3-0.4,0.4-0.7c0.1-0.2,0.1-0.3,0-0.5
c-0.1-0.2-0.1-0.3,0.1-0.4c0.2-0.1,0.4-0.3,0.7-0.3c0.1,0,0.2,0,0.2,0c0.5,0.3,1,0.3,1.4-0.1c0.2-0.2,0.5-0.2,0.7-0.3
c0.3-0.1,0.7-0.2,1-0.3c0.1,0.2,0.2,0.4,0.5,0.5c0.1,0,0.2,0.1,0.2,0c0.2-0.1,0.2-0.2,0.1-0.3c0-0.1-0.1-0.2-0.2-0.2
c-0.2,0-0.5,0-0.7,0c0.1-0.1,0.2-0.3,0.3-0.4c0.2-0.3,0.5-0.5,0.8-0.5c0.1,0,0.2,0,0.3,0c0.6,0.1,1-0.2,1.3-0.6
c0.2-0.2,0.4-0.2,0.7-0.2c0.1,0,0.2,0,0.3,0.1c0.4,0.1,0.6-0.1,0.8-0.5c0-0.1,0.1-0.2,0.1-0.2c0.2-0.4,0.5-0.5,0.8-0.4
c0.2,0,0.3,0.1,0.5,0.2c0.5,0.2,1,0.1,1.3-0.4c0.3-0.4,0.4-0.4,0.7,0.1c0,0.1,0.1,0.2,0.1,0.2c0.1,0.2,0.5,0.3,0.7,0.2
c0.6-0.3,1.3-0.6,1.7-1.1c0.4-0.5,0.9-0.8,1.5-0.9c0.7-0.1,1.3-0.3,2-0.4c0.6-0.1,1.2-0.2,1.7-0.5c0.4-0.2,1.4-0.2,1.8-0.1
c0.4,0.1,0.8,0.3,1.1,0.6c0.2,0.2,0.3,0.4,0.6,0.5c0.2,0.1,0.3,0.1,0.5,0c0.2-0.1,0.3-0.2,0.4-0.3c0.6-0.5,1.1-1.1,1.5-1.7
c0.1-0.2,0.4-0.3,0.7-0.3c0.3,0,0.5,0,0.8,0c0.3,0,0.5,0.2,0.4,0.5c-0.1,0.4,0,0.5,0.3,0.5c0.2,0,0.3,0,0.5-0.1
c0.3-0.2,0.6-0.3,1-0.3c0.2,0.3,0.3,0.6,0.6,0.8c0.1,0,0.2,0,0.2,0c0.1,0,0.1-0.1,0.1-0.2c0-0.1,0-0.2-0.1-0.2
c-0.3-0.2-0.6-0.2-1-0.3c0-0.3,0-0.7,0.2-1c0.1-0.2,0.3-0.4,0.6-0.4c0.4,0.1,0.9,0.1,1.3,0c0.3-0.1,0.7,0,1,0
c0.8,0.1,0.8,0.1,1-0.7c0.1-0.3,0.3-0.4,0.6-0.4c0.4,0,0.9,0.1,1.3,0.2c0.1,0,0.3,0.2,0.4,0.3c0.1,0.3,0.2,0.5,0.4,0.6
c0.3,0.1,0.5-0.1,0.7-0.2c0.3-0.2,0.6-0.4,0.7-0.7c0.1-0.2,0.1-0.3,0.2-0.5c0.3-0.4,0.6-0.6,1.1-0.6c0.5,0,1,0,1.5,0
c0.8,0,1.5-0.1,2.2-0.6c0.3-0.2,0.6-0.2,1-0.2c0.3,0,0.7,0.1,1,0c0.3,0,0.5-0.2,0.7-0.1c0.3,0,0.7,0.2,1,0.1
c0.4-0.1,0.6,0.1,0.9,0.3c0.4,0.4,0.8,0.2,0.9-0.3c0-0.1,0-0.2,0-0.3c0.1-0.3,0.2-0.5,0.5-0.5c0.6,0,1.2-0.2,1.8-0.4
c1.4-0.5,2.8-0.7,4.3-0.8c0.3,0,0.5,0,0.8-0.1c1.7-0.4,3.4-0.5,5.1-0.9c0.3-0.1,0.7-0.1,1-0.1c1.3-0.2,2.6-0.2,3.8-0.6
c0.2-0.1,0.5-0.1,0.8-0.1c1.5,0,2.9-0.4,4.4-0.6c0.7-0.3,1.5-0.3,2.3-0.2c1.1,0.1,2.1-0.1,3-0.6c0.2-0.1,0.3-0.2,0.2-0.4
c0-0.2-0.1-0.3-0.3-0.4c-0.1,0-0.2-0.1-0.2-0.1c-1,0.2-2.1,0-3.1-0.1c-0.4-0.1-0.8-0.3-1-0.8c-0.1-0.2-0.2-0.3-0.2-0.5
c-0.1-0.2-0.2-0.3-0.4-0.3c-0.2,0-0.3,0.1-0.4,0.2c-0.1,0.2-0.1,0.3-0.2,0.5c-0.1,0.3-0.3,0.4-0.6,0.4c-0.3,0.1-0.5,0.1-0.8,0.1
c-0.5,0-1-0.1-1.5-0.1c-1.4,0.1-2.8-0.1-4.1,0c-0.5,0-1,0-1.5-0.2c-0.3-0.1-0.5-0.1-0.8,0c-0.4,0.1-0.7,0-1-0.2
c-0.1-0.1-0.3-0.2-0.5-0.1c-0.4,0.2-0.8,0.2-1.2,0.2c-0.7-0.1-1.4,0.2-2-0.2c-0.3,0-0.5,0.1-0.8,0.1c-0.8,0.2-1.4,0-1.8-0.7
c0-0.1-0.1-0.1-0.2-0.2c-0.3-0.3-0.4-0.3-0.6-0.2c-0.2,0.2-0.4,0.4-0.6,0.5c-0.2,0.2-0.5,0.3-0.7,0.3c-0.5,0-1-0.1-1.5,0
c-1-0.1-2.1,0.2-3.1,0.2c-0.9,0-1.9-0.1-2.8,0c-0.2,0-0.4,0-0.5,0c-0.8-0.3-1.7-0.1-2.6-0.1c-0.9,0-1.7,0.1-2.6,0
c-0.5-0.1-1,0-1.5,0.1c-1.4,0.3-2.7,0.2-4.1,0.2c-0.3,0-0.7,0-1-0.1c-0.9-0.3-1.9-0.1-2.8-0.4c-0.2,0-0.3,0-0.5,0
c-1.9,0.4-3.8,0.3-5.7,0.3c-2.5,0-5-0.1-7.5-0.1c-0.9-0.1-1.7,0-2.6-0.1c-0.8-0.1-1.5-0.1-2.3-0.1c-0.3,0-0.5,0-0.8-0.1
c-1-0.3-2-0.3-3.1-0.5c-0.4-0.1-0.8-0.2-1.2-0.5c-0.3-0.3-0.6-0.6-0.7-1c-0.1-0.3-0.2-0.7-0.3-1c-0.1-0.4,0-0.8,0.3-1.2
c0.3-0.3,0.6-0.6,0.9-0.9c0.2-0.1,0.3-0.1,0.5-0.2c0.8-0.2,1.5-0.5,2-1.1c0.1-0.1,0.3-0.1,0.5,0c0.2,0.1,0.3,0.4,0.2,0.7
c0,0.1-0.1,0.2-0.1,0.2c-0.1,0.2-0.1,0.3-0.2,0.5c-0.2-0.1-0.3-0.1-0.4,0.1c0,0,0.1,0.2,0.1,0.2c0.2,0,0.3-0.2,0.2-0.4
c0.2,0,0.3,0,0.5,0c0.4,0,0.7-0.2,0.8-0.6c0.1-0.3,0.2-0.7,0.6-0.7c0.3,0,0.7-0.2,1-0.4c0.2-0.1,0.5-0.2,0.7-0.2
c0.5,0.2,1,0.1,1.5,0c0.2,0,0.4-0.1,0.5-0.1c0.4-0.3,0.9-0.4,1.4-0.6c0.2-0.1,0.2-0.2,0.3-0.4c0.1-0.2,0.3-0.4,0.5-0.6
c0.5-0.6,1.1-1,2-0.8c0.7,0.2,1.4-0.1,2-0.3c0.2-0.1,0.5,0.2,0.6,0.4c0,0.2,0,0.3,0.1,0.5c0.1,0.5,0.5,0.7,0.9,0.5
c0.6-0.3,0.9-0.7,1-1.4c0-0.3-0.1-0.5-0.2-0.7c-0.1-0.2-0.1-0.3,0.1-0.4c0.4-0.3,0.9-0.5,1.4-0.6c0.3,0,0.5,0,0.8,0
c1.2,0.1,2.4-0.1,3.6-0.4c0.4-0.1,0.7,0,1,0c0.4,0.1,0.7,0,1-0.2c0.2-0.1,0.3-0.1,0.4-0.3c0.6-0.5,1.3-0.9,2.1-0.9
c0.8-0.3,1.7-0.4,2.5-0.4c0.8,0,1.5-0.1,2.3-0.1c0.4,0,0.8-0.2,1.3-0.2c0.9-0.6,2-0.6,3-0.6c0.5,0,1-0.1,1.5-0.3
c0.5-0.2,0.8,0,0.8,0.6c0,0.1,0,0.2,0.1,0.2c-0.3,0.1-0.4,0.3-0.5,0.6c-0.1,0-0.1-0.1-0.2-0.1c-0.1,0-0.2,0-0.2-0.1
c-0.2,0-0.3,0-0.4,0.2c-0.2,0.2-0.1,0.4,0.1,0.6c0.3,0.3,0.6,0.2,0.7-0.2c0-0.2,0-0.3,0-0.5c0.2-0.1,0.4-0.3,0.5-0.5
c0.2,0,0.4,0.1,0.5,0c0.5-0.3,1-0.7,1.5-1c0.3-0.2,0.6-0.3,1-0.3c0.4,0,0.9-0.1,1.3-0.3c0.7-0.3,1.5-0.4,2.3-0.5
c1.2-0.1,2.4-0.2,3.6-0.4c0.2-0.1,0.5,0,0.8,0c0.4,0,0.9,0,1.3-0.1c0.9-0.4,1.8-0.4,2.8,0c0.2,0.1,0.5,0,0.7-0.1
c1.2-0.8,1.2-0.7,1.9-0.8c0.6-0.1,1.2-0.2,1.8-0.3c0.1,0,0.2,0,0.3,0c0.6-0.1,1.2-0.2,1.8-0.4c0.5-0.2,1,0,1.5-0.1
c0.3-0.1,0.6-0.4,0.6-0.8c0-0.2,0-0.3,0-0.5c0-0.2-0.3-0.4-0.6-0.4c-0.2,0-0.3,0.1-0.5,0.2c-0.4,0.1-0.6,0-0.9-0.3
c-0.4-0.4-0.4-0.3-0.8,0c-0.1,0.1-0.1,0.1-0.2,0.2c-0.3,0.2-0.6,0.4-0.9,0.5c-0.2,0.1-0.5,0.1-0.7,0c-0.2-0.1-0.5-0.2-0.7-0.2
c-0.2,0-0.3,0-0.5,0c-0.3,0-0.7,0-1-0.1c-0.2-0.1-0.4-0.4-0.5-0.5c-0.2-0.2-0.4-0.3-0.7-0.2c-0.3,0.1-0.7,0.1-1,0.2
c-0.9,0.1-1.7,0.1-2.5-0.3c-0.3-0.2-0.6,0.1-0.7,0.5c0,0.2-0.1,0.4-0.1,0.5c-0.1,0.1-0.2,0.3-0.4,0.3c-0.4,0.1-0.9,0.2-1.3,0
c-0.6-0.2-1.2-0.2-1.8,0c-0.2,0.1-0.5,0-0.7-0.1c-0.3-0.2-0.6-0.4-0.9-0.4c-0.3,0-0.5,0-0.8-0.1c-0.7-0.2-1.4-0.1-2,0.3
c-0.2,0.1-0.5,0-0.7-0.1c-0.1,0-0.1-0.1-0.2-0.2c-0.3-0.2-0.7-0.3-0.9-0.1c-0.2,0.2-0.4,0.3-0.5,0.5c-0.3,0.4-0.7,0.5-1.1,0.5
c-0.4,0-0.7-0.1-1-0.3c-0.7-0.4-1.5-0.4-2.2,0c-0.5,0.3-1,0.3-1.5,0.1c-1-0.4-2-0.4-3.1-0.4c-0.6,0-1.2,0.2-1.7,0.5
c-0.6,0.4-1.3,0.5-2,0.4c-0.6-0.1-1.2,0-1.8-0.2c-0.9-0.4-1.7-0.1-2.5,0.1c-0.6,0.4-1.3,0.5-2,0.2c-0.3-0.1-0.7-0.2-1-0.1
c-0.6,0.2-1.2,0.2-1.8,0c-0.3-0.1-0.7-0.2-1-0.3c-0.2,0-0.4,0-0.5,0.1c-0.5,0.2-1,0.4-1.5,0.4c-0.5,0-1,0.1-1.5,0.1
c-0.9,0-0.9,0-1.8-0.7c-0.2-0.1-0.3-0.2-0.5,0c-0.1,0.1-0.2,0.3-0.3,0.4c-0.2,0.3-0.5,0.5-0.9,0.5c-0.2,0-0.3,0.1-0.5,0
c-0.9-0.1-1.9-0.1-2.8,0c-0.9,0.1-1.7,0-2.6,0c-0.6,0-1.2,0-1.8,0.1c-0.3,0.1-0.5,0-0.8-0.1c-0.6-0.1-1.2-0.2-1.8,0
c-0.5,0.1-1,0.2-1.5,0c-0.3-0.1-0.7-0.1-1-0.1c-1.4-0.1-2.2-0.9-2.8-2.1c-0.1-0.2-0.2-0.5-0.2-0.7c0.1-0.7-0.1-1.4-0.2-2
c0-0.2,0.1-0.4,0.3-0.4c0.6-0.1,1.2-0.1,1.7-0.4c0.3-0.2,0.7-0.2,1-0.3c0.9-0.5,1.9-0.7,3-0.8c0.4,0,0.8-0.2,1.2-0.3
c0.6-0.3,1.3-0.6,2-0.5c0.2,0,0.3,0,0.5-0.1c1.3-0.6,2.7-0.7,3.9-1.3c0.9-0.1,1.8-0.5,2.8-0.5c0.5,0,1-0.1,1.5-0.4
c0.1,0,0.2-0.1,0.2-0.1c1.4-0.3,2.9-0.7,4.3-0.9c0.4-0.1,0.8-0.1,1.2-0.3c0.3-0.2,0.7-0.2,1-0.2c0.7,0,1.4,0,2-0.3
c0.5-0.2,1-0.2,1.5-0.1c0.7,0,1.4,0,2-0.4c0.5-0.1,1-0.2,1.5-0.4c1.2-0.3,2.4-0.3,3.6-0.7c0.8,0,1.5-0.1,2.3-0.3
c0.7-0.2,1.5-0.2,2.3-0.5c0.3-0.1,0.7-0.2,1-0.2c0.6-0.1,1.2-0.1,1.8-0.1c0.3,0,0.7,0,1-0.2c0.4-0.2,0.8-0.3,1.2-0.4
c0.9-0.2,1.9-0.3,2.8-0.5c0.8-0.2,1.5-0.1,2.3-0.2c0.4,0,0.7-0.1,1-0.2c0.2-0.1,0.5-0.2,0.7-0.2c1,0,2-0.4,3.1-0.4
c0.6,0,1.2-0.1,1.8-0.2c1.1-0.2,2.2-0.4,3.3-0.4c0.2,0,0.3,0,0.5-0.1c1.1-0.3,2.2-0.3,3.3-0.5c1.1-0.1,2.2-0.2,3.4-0.3
c0.6,0,1.2-0.1,1.8-0.3c1.2-0.3,2.4-0.5,3.6-0.5c1.5-0.1,2.9-0.3,4.3-0.7c0.7-0.2,1.4-0.1,2.1-0.2c0.5-0.1,1-0.1,1.5-0.4
c0.2-0.1,0.3-0.2,0.2-0.4c0-0.1-0.1-0.3-0.3-0.3c-0.2-0.1-0.3-0.1-0.5-0.1c-0.4,0-0.9,0-1.3,0c-2,0.1-4,0.1-6-0.1
c-0.9,0-1.7,0-2.6,0.1c-1.5,0.1-2.9,0.2-4.4,0.1c-0.5,0-1-0.1-1.4-0.5c-0.4-0.4-0.9-0.4-1.4-0.1c-0.1,0-0.1,0.1-0.2,0.1
c-0.9,0.5-1.8,0.6-2.7,0.2c-0.3-0.2-0.7-0.2-1-0.1c-0.3,0.1-0.7,0.2-1,0.1c-0.3-0.1-0.7-0.1-1,0c-0.2,0.1-0.5,0.1-0.7,0
c-0.3-0.2-0.7-0.2-1-0.1c-0.5,0.2-1,0.3-1.5,0.3c-1.5-0.1-2.9-0.1-4.4-0.2c-0.4,0-0.7,0.1-1,0.2c-1.2,0.5-2.3,0.5-3.5-0.1
c-0.2-0.1-0.3-0.2-0.5-0.2c-0.3-0.1-0.7-0.1-1,0.1c-0.1,0.1-0.3,0.2-0.4,0.3c-0.2,0.1-0.3,0.1-0.5,0.1c-0.7-0.1-1.4-0.2-2.1-0.1
c-0.2,0.1-0.5,0-0.8-0.1c-0.4-0.1-0.9-0.1-1.3,0c-0.5,0.1-0.8-0.2-1-0.6c-0.1-0.2-0.2-0.2-0.4-0.1c-0.4,0.3-0.8,0.7-1.4,0.7
c-0.2,0-0.5,0.1-0.7,0.2c-0.8,0.3-1.7,0.4-2.5,0.3c-0.5-0.1-1-0.2-1.1-0.9c0-0.1-0.1-0.2-0.1-0.2c-0.1-0.2-0.2-0.2-0.4-0.2
c-0.6,0.1-1.2,0.2-1.6,0.8c-0.1,0.1-0.3,0.2-0.4,0.3c-0.6,0.1-1.2,0.3-1.7,0.5c-0.2,0.1-0.5,0.1-0.8,0.1c-1.8-0.2-3.6,0-5.4,0.1
c-1.2,0-2.4,0.1-3.6-0.1c-0.6-0.1-1.2-0.1-1.8,0c-0.9,0.2-1.9,0.3-2.8,0.1c-0.9-0.1-1.7-0.1-2.6-0.3c-0.6-0.1-1.2-0.2-1.8-0.1
c-0.1,0-0.2,0-0.3,0c-0.1,0-0.2,0-0.3,0c-1.3-0.4-2.6-0.1-3.9-0.4c-0.3-0.1-0.7-0.1-1-0.3c-0.4-0.3-0.9-0.6-1.3-0.9
c-0.2-0.1-0.4-0.4-0.5-0.6c-0.3-0.6-0.4-1.1-0.4-1.8c0.1-0.5,0-0.8-0.3-1.2c-0.1-0.1,0-0.4,0.2-0.5c0.4-0.3,0.9-0.5,1.4-0.7
c0.1,0,0.2,0,0.3,0c0.2,0.1,0.4,0.3,0.7,0.4c0,0.2,0.1,0.3,0.2,0.4c0-0.1,0.1-0.2,0.1-0.2c-0.1-0.1-0.3-0.2-0.4-0.1
c0-0.3,0-0.7,0.1-1c0-0.3,0.2-0.5,0.5-0.6c0.1,0,0.2-0.1,0.2-0.1c0.3-0.2,0.6-0.2,1-0.1c0.6,0.3,0.9,0,1.2-0.5
c0.2-0.3,0.5-0.5,0.8-0.6c0.7-0.1,1.3-0.3,2-0.6c0.5-0.3,1.1-0.4,1.7-0.4c0.8,0,1.5-0.2,2.2-0.6c0.4-0.2,0.8-0.4,1.2-0.4
c0.5-0.1,1-0.2,1.5-0.4c0.7-0.2,1.5-0.5,2.3-0.6c0.2,0,0.3-0.1,0.5-0.1c1.2-0.4,2.5-0.8,3.8-0.8c0.3,0,0.7-0.1,1-0.3
c0.4-0.2,0.8-0.3,1.3-0.3c0.5,0,1-0.1,1.5-0.3c0.2-0.1,0.3-0.1,0.5-0.1c0.7,0,1.4-0.2,2-0.4c0.5-0.1,1-0.4,1.5-0.4
c1.2-0.1,2.4-0.5,3.6-0.5c0.7,0,1.4-0.2,2-0.4c1.5-0.5,3-0.8,4.5-1c0.4-0.1,0.8-0.1,1.3-0.1c0.3,0,0.5,0,0.8-0.1
c1.3-0.5,2.7-0.7,4-0.8c0.6,0,1.2-0.2,1.8-0.4c0.6-0.3,1.1-0.4,1.7-0.4c0.3,0,0.5,0,0.8,0c1.3-0.4,2.7-0.4,4.1-0.5
c0.2,0,0.3,0,0.5-0.1c2.6-0.6,5.3-0.8,7.9-1.4c0.3-0.1,0.5-0.1,0.8-0.1c0.9-0.1,1.7-0.1,2.6-0.2c0.9-0.1,1.7-0.2,2.6-0.3
c0.9-0.1,1.9-0.3,2.8-0.4c1.5-0.1,3.1-0.4,4.6-0.5c0.4,0,0.9-0.1,1.2-0.4c0.2-0.1,0.2-0.2,0.2-0.4c0-0.1-0.1-0.1-0.2-0.1
c-0.6-0.2-1.2-0.2-1.8-0.2c-0.8,0.1-1.5,0.1-2.3,0c-0.3-0.1-0.7-0.1-1,0c-1.1,0.1-2.2,0.1-3.4,0c-1.1-0.1-2.2,0-3.4,0
c-1.2,0.3-2.4,0.1-3.6,0.2c-2.1,0-4.1,0-6.2,0.3c-0.9,0.2-1.9,0.1-2.8,0c-0.3,0-0.7-0.1-1-0.1c-1.1,0.2-2.2,0-3.4,0.2
c-0.4,0.1-0.9,0-1.3,0.1c-0.9,0.2-1.9,0.2-2.8-0.1c-0.2-0.1-0.3-0.1-0.5,0c-0.5,0.2-1,0.3-1.5,0.3c-0.5,0-1,0.1-1.5,0.2
c-0.2,0.1-0.5,0.1-0.8,0.1c-0.8-0.2-1.5-0.2-2.3,0c-0.8,0.2-1.7,0.1-2.6,0.2c-0.4,0-0.9-0.1-1.3-0.2c-0.4-0.1-0.9-0.1-1.3,0
c-0.3,0.1-0.7,0.2-1,0.3c-0.9,0.2-1.9,0.3-2.8-0.1c-0.2-0.1-0.3-0.1-0.5,0c-1,0.4-2,0.3-3.1,0.5c-1,0.2-2.1,0.2-3.1,0.1
c-0.9-0.1-1.7,0.1-2.6,0.3c-0.5,0.1-1,0.1-1.5,0c-0.7-0.2-1.4-0.2-2.1-0.1c-2,0.3-4,0.3-5.9,0.1c-0.8-0.1-1.6-0.1-2.3-0.1
c-0.8,0-1.5-0.3-2.2-0.6c-0.3-0.2-0.6-0.4-0.7-0.7c-0.2-0.6-0.4-1.3-0.6-2c0-0.2,0-0.3,0.1-0.5c0.1-0.3,0.3-0.6,0.4-1
c0.2-0.8,0.2-0.8,1-0.6c0.3,0.1,0.7,0.2,1,0.2c0.2,0,0.3-0.2,0.3-0.3c0-0.1,0-0.2,0-0.3c-0.1-0.3-0.1-0.5,0-0.7
c0.1-0.2,0.3-0.4,0.6-0.5c0.2-0.1,0.5-0.1,0.7,0c0.2,0.1,0.4,0.3,0.6,0.5c0.1,0,0.2,0.1,0.2,0.1c0.2,0.1,0.6-0.1,0.6-0.3
c0.1-0.3,0-0.7,0-1c0-0.1,0.1-0.2,0.1-0.2c0.9-0.5,1.9-0.8,3-0.8c0.3,0,0.5,0.1,0.6,0.4c0.1,0.2,0.2,0.5,0.4,0.7
c0.1,0.2,0.3,0.4,0.6,0.4c0.3,0,0.7-0.1,1-0.2c0.2,0,0.5-0.4,0.4-0.6c-0.1-0.3-0.2-0.7-0.3-1c-0.1-0.3,0.1-0.7,0.4-0.8
c0.2-0.1,0.5-0.2,0.8-0.1c0.2,0.1,0.3,0.1,0.5,0.2c0.3,0.1,0.5,0,0.7-0.2c0.3-0.2,0.5-0.5,0.7-0.7c0.2-0.2,0.5-0.3,0.7-0.3
c0.4,0,0.9,0,1.3,0c0.3,0,0.7,0,1-0.2c0.4-0.3,1-0.4,1.5-0.5c0.6-0.1,1.2-0.3,1.7-0.5c0.1-0.1,0.4,0,0.5,0.1
c0.6,0.5,1.2,0.6,1.9,0.8c0.3,0.1,0.7,0,1-0.2c0.4-0.2,0.7-0.5,1-0.8l0,0.1l-0.1-0.1c0.1-0.1,0.2-0.3,0.3-0.4
c0.1-0.2,0.3-0.4,0.6-0.5c0.2-0.1,0.5-0.1,0.8-0.1c0.5,0,1,0.1,1.5,0.2c0.7,0.1,0.8,0.1,1.1-0.7c0.1-0.2,0.2-0.3,0.4-0.3
c0.7-0.2,1.4-0.2,2-0.1c0.4,0.1,0.7,0,1-0.2c0.4-0.4,0.9-0.6,1.4-0.7c1.3-0.2,2.6-0.4,3.8-0.6c0.3-0.1,0.7-0.1,1-0.3
c0.7-0.4,1.4-0.6,2.2-0.6c0.3,0,0.5-0.1,0.7-0.2c0.3-0.1,0.7-0.1,1-0.2c0.8,0,1.5-0.1,2.3-0.1c0.4,0,0.7,0,1-0.2
c0.7-0.5,1.6-0.7,2.5-0.7c0.7,0,1.4-0.2,2-0.3c1-0.2,2-0.6,3.1-0.5c0.8-0.2,1.7-0.3,2.5-0.5c0.3-0.1,0.7-0.1,1-0.2
c0.3-0.1,0.5,0,0.8,0.1c0.3,0.1,0.7,0.1,1,0c0.5-0.2,1-0.3,1.5-0.3c0.4-0.1,0.8-0.3,1.2-0.5c0.2-0.1,2-0.6,1.7-0.7
c4.8-0.9,5.5-1.4,5.5-1.5 M70.8,306.6l0.1,0.1L70.8,306.6c0-0.1,0-0.3-0.2-0.3c0,0-0.2,0.1-0.2,0.1
C70.4,306.6,70.6,306.7,70.8,306.6z M89.7,360c-0.1,0.2-0.1,0.3,0,0.5c0.1,0.2,0.3,0.2,0.4,0.1c0.1,0,0.1-0.1,0.2-0.2
c0.1-0.2,0-0.3-0.2-0.4C90,360,89.8,360,89.7,360c-0.1-0.2-0.1-0.2-0.2-0.1C89.6,360,89.7,360,89.7,360z M148.1,370.3
c0.1,0.5,0.2,0.6,0.6,0.7c0.2,0,0.3-0.1,0.3-0.3c0-0.1,0-0.2-0.1-0.2C148.7,370.2,148.4,370.1,148.1,370.3l0-0.1L148.1,370.3z
 M94.5,359.1c0.3,0.1,0.7-0.1,0.9-0.4c0.2-0.2,0.1-0.7-0.1-1c-0.1-0.1-0.3-0.2-0.4-0.1c-0.3,0.1-0.5,0.4-0.7,0.7
C93.9,358.7,94.1,359,94.5,359.1z M159.4,392.9C159.8,393.1,159.6,393,159.4,392.9c0,0-0.1,0-0.2,0c-0.2,0-0.3,0.1-0.4,0.3
c-0.1,0.3,0,0.6,0.2,0.6c0.5,0.2,1,0.2,1.5,0c0.2,0,0.3-0.2,0.2-0.3c0-0.1-0.1-0.2-0.1-0.2C160.4,393.3,160.2,393.2,159.4,392.9z
 M102.5,380.8c0-0.1,0-0.2,0-0.2c-0.2-0.4-0.5-0.5-0.7-0.3c-0.2,0.2-0.3,0.4-0.5,0.6c-0.1,0.2,0,0.3,0.1,0.4
c0.1,0.1,0.3,0.2,0.4,0.1C102.1,381.4,102.3,381.1,102.5,380.8z M151.1,394.3c0.3,0,0.5-0.3,0.4-0.5c-0.2-0.4-0.5-0.6-0.9-0.9
c-0.1,0-0.1-0.1-0.2-0.1c-0.1,0-0.2,0-0.2,0.1c-0.1,0-0.1,0.1-0.1,0.2c0.1,0.5,0.3,0.9,0.8,1.2C150.9,394.3,151,394.3,151.1,394.3
z M142.8,415.7c-0.2,0.1-0.3,0.2-0.5,0.2c-0.2,0.1-0.3,0.2-0.3,0.4c0,0.2,0.2,0.2,0.4,0.2c0.1,0,0.2,0,0.3-0.1
c0.1,0,0.2,0,0.2-0.1c0.4-0.1,0.5-0.3,0.4-0.5C143.2,415.6,143.1,415.5,142.8,415.7z M140,329.4c0-0.1-0.1-0.1-0.1-0.2
c-0.1,0-0.2-0.1-0.2,0c-0.3,0.1-0.6,0.2-0.9,0.5c0,0.1-0.1,0.2,0,0.2c0,0.2,0.2,0.3,0.3,0.3C139.6,330.1,139.8,329.8,140,329.4z
 M87.7,361.1c0.2,0,0.3,0,0.5-0.1c0.2,0,0.3-0.4,0.2-0.6c-0.1-0.1-0.1-0.1-0.2-0.2c-0.2,0-0.3-0.1-0.5-0.1c-0.3,0-0.5,0.3-0.5,0.5
C87.2,360.9,87.4,361.1,87.7,361.1z M125.6,292.5c0-0.3-0.2-0.5-0.5-0.4c-0.4,0.2-0.7,0.4-0.9,0.8c0,0.1-0.1,0.2-0.1,0.2
c0.1,0.1,0.3,0.2,0.4,0.2c0.3,0,0.6-0.2,0.9-0.4C125.5,292.8,125.6,292.7,125.6,292.5z M83.6,300.6c0.1,0.1,0.1,0.3,0.2,0.4
c0.2,0.2,0.5,0.1,0.6-0.1c0.1-0.1,0.1-0.3,0.1-0.5c0-0.2-0.3-0.5-0.5-0.4C83.8,300.1,83.6,300.4,83.6,300.6z M81.1,320.2
c0,0.3,0.4,0.6,0.7,0.6c0.2,0,0.3-0.1,0.3-0.3c0.1-0.2,0-0.3-0.2-0.4c-0.2-0.1-0.4-0.2-0.7,0C81.2,320.1,81.2,320.1,81.1,320.2z
 M156.3,393.6c0-0.2-0.3-0.3-0.6-0.3c-0.4,0-0.6,0.3-0.4,0.7c0.1,0.2,0.4,0.3,0.6,0.2C156.2,394.1,156.4,393.8,156.3,393.6z
 M96.2,318.2c0.1,0,0.2,0,0.3,0c0.2-0.1,0.2-0.2,0.1-0.4c-0.1-0.1-0.2-0.3-0.3-0.4c0,0-0.1-0.1-0.2-0.1c-0.2,0-0.3,0.2-0.3,0.3
C95.8,317.9,95.9,318.1,96.2,318.2z M131,398.2c0.1,0,0.2,0,0.2,0c0.2-0.1,0.4-0.4,0.4-0.6c0-0.3-0.6-0.4-0.9-0.2
c-0.2,0.1-0.2,0.3-0.1,0.4C130.7,398.1,130.8,398.2,131,398.2z M129.1,290c0.2,0,0.3-0.1,0.4-0.1c0.1,0,0.1-0.2,0.1-0.2
c-0.2-0.2-0.4-0.2-0.6-0.2c-0.2,0-0.3,0.2-0.1,0.3C129,289.9,129.1,290,129.1,290z M81.7,362.8c0.2,0.1,0.4-0.1,0.5-0.4
c0-0.2,0-0.3-0.2-0.4c-0.2-0.1-0.5,0-0.6,0.2C81.3,362.4,81.5,362.7,81.7,362.8z M74.3,322c0,0.2,0.2,0.5,0.5,0.5
c0.2,0,0.3,0,0.4-0.2c0.2-0.2,0.1-0.5-0.1-0.6C74.7,321.6,74.3,321.7,74.3,322z M78.1,322.8c0.2,0,0.3,0,0.4-0.2
c0,0,0-0.2-0.1-0.2c-0.2-0.3-0.5-0.4-0.8-0.5c-0.2,0-0.3,0-0.4,0.2c0,0,0,0.2,0.1,0.2C77.4,322.6,77.7,322.8,78.1,322.8z
 M156.5,329.7c0.1,0,0.2,0,0.2-0.1c0.2-0.1,0.3-0.3,0.2-0.4c0-0.2-0.2-0.2-0.4-0.2c-0.4,0-0.6,0.2-0.5,0.4
C156.1,329.6,156.3,329.7,156.5,329.7z M112.6,355.5c0-0.3-0.3-0.5-0.5-0.4c-0.2,0.1-0.3,0.2-0.3,0.4c0,0.2,0.3,0.4,0.5,0.3
C112.5,355.8,112.6,355.7,112.6,355.5z M111,329.5c-0.1,0-0.1-0.1-0.2-0.1c-0.3,0-0.5,0.1-0.6,0.3c0,0.1,0,0.2,0,0.2
c0.1,0.2,0.2,0.2,0.4,0.1C110.8,329.9,111,329.8,111,329.5z M109.4,369.9c0.2,0.1,0.3,0,0.4-0.1c0.1-0.1,0.2-0.2,0.1-0.4
c-0.1-0.2-0.4-0.3-0.6-0.2c-0.2,0.1-0.2,0.2-0.2,0.4C109.2,369.7,109.3,369.8,109.4,369.9z M146.5,393.6c0-0.2-0.1-0.3-0.2-0.4
c-0.2,0-0.3,0.1-0.4,0.3c-0.2,0.3-0.1,0.5,0.1,0.7c0.2,0.1,0.3,0.1,0.4-0.1C146.5,394,146.5,393.8,146.5,393.6z M143.6,395
c0,0.2,0,0.3,0.2,0.4c0.2,0.1,0.3,0,0.4-0.1c0.2-0.2,0.1-0.6-0.1-0.7C143.9,394.6,143.6,394.8,143.6,395z M142.2,369.2
c-0.1,0.1-0.1,0.3,0.1,0.4c0.2,0.2,0.4,0.3,0.6,0.4c0.2,0.1,0.3,0.1,0.4-0.1c0.1-0.1,0-0.3-0.1-0.4c-0.2-0.2-0.3-0.4-0.6-0.4
C142.4,369,142.3,369.1,142.2,369.2z M97.2,381.6c0.2-0.1,0.2-0.2,0.2-0.4c0-0.3-0.2-0.4-0.5-0.5c-0.2-0.1-0.3,0-0.4,0.1
c-0.1,0.2-0.1,0.3,0,0.4C96.8,381.5,97,381.7,97.2,381.6z M140.8,371.4c0-0.3-0.2-0.6-0.4-0.5c-0.2,0-0.3,0.1-0.4,0.2
c-0.1,0.2-0.1,0.4,0.1,0.7c0.1,0.1,0.2,0.2,0.4,0.2c0.1,0,0.1-0.1,0.2-0.1C140.7,371.8,140.8,371.6,140.8,371.4z M152.7,393.9
c0,0.1,0,0.1,0,0.2c0,0.2,0.1,0.4,0.3,0.4c0.2,0,0.3-0.2,0.3-0.3c0-0.1,0-0.2,0-0.2c-0.1-0.1-0.2-0.3-0.3-0.4
C152.9,393.6,152.8,393.7,152.7,393.9z M132.5,351.4c0.2,0,0.3,0,0.4-0.2c0.1-0.2,0-0.3-0.2-0.4c-0.3-0.1-0.6,0.1-0.5,0.3
C132.2,351.2,132.3,351.3,132.5,351.4z M72.6,324.2c0.1-0.1,0.2-0.1,0.2-0.2c0-0.1,0-0.2,0-0.2c-0.1-0.2-0.2-0.3-0.4-0.1
c-0.2,0.1-0.3,0.2-0.2,0.4C72.2,324.2,72.4,324.3,72.6,324.2z M96.3,358.4c0,0.1,0.1,0.1,0.1,0.2c0.2,0,0.3,0,0.4-0.2
c0-0.1-0.1-0.2-0.1-0.2C96.5,358.1,96.4,358.2,96.3,358.4z M83.1,384.1c0.2,0,0.3-0.1,0.3-0.3c0.1-0.2,0-0.3-0.1-0.4
c-0.1-0.1-0.3-0.1-0.4,0c-0.1,0.1-0.2,0.2-0.1,0.4C82.8,384,83,384.1,83.1,384.1z M114.2,356.7c0.1,0,0.2,0,0.2-0.1
c0-0.1,0-0.2,0-0.2c-0.1-0.2-0.2-0.3-0.4-0.2c-0.1,0-0.1,0.1-0.1,0.2C113.9,356.5,114,356.6,114.2,356.7z M116,356
c0.2,0,0.3,0,0.4-0.2c0.1-0.2-0.1-0.5-0.4-0.5c-0.2,0-0.3,0.1-0.3,0.3C115.7,355.8,115.8,355.9,116,356z M117.4,369
c-0.3,0-0.5,0.3-0.4,0.5c0.1,0.2,0.2,0.3,0.4,0.2c0.1,0,0.2-0.1,0.2-0.1c0.2-0.1,0.3-0.3,0.2-0.4C117.8,369.1,117.6,369,117.4,369
z M135.2,376.7c0-0.1,0.1-0.1,0.1-0.2c0-0.2-0.2-0.3-0.4-0.2c-0.1,0-0.2,0.1-0.1,0.2C134.9,376.7,135,376.7,135.2,376.7z
 M129.3,375.9c0.1,0,0.1,0,0.2,0c0-0.1,0-0.1,0-0.2c-0.1,0-0.2,0-0.2,0.1C129.3,375.8,129.3,375.9,129.3,375.9z M118.5,377.3
c0,0.2,0.1,0.3,0.2,0c0,0,0-0.1-0.1-0.2C118.6,377.2,118.6,377.2,118.5,377.3z M129.2,392.5c0.3,0,0.3-0.1,0-0.3
c0,0-0.1,0.1-0.2,0.1C129.1,392.4,129.2,392.5,129.2,392.5z M154,392.1c0-0.1,0.1-0.1,0.1-0.2c0-0.1-0.1-0.2-0.1-0.2
c-0.1,0-0.2,0-0.2,0c-0.2,0.1-0.2,0.2,0,0.3C153.9,392.1,154,392.1,154,392.1z M112.8,338.6c-0.1,0-0.1,0-0.2,0
c0,0.1-0.1,0.2,0,0.2c0.1,0.2,0.2,0.2,0.3-0.1C112.9,338.7,112.8,338.7,112.8,338.6z M147.9,416.7c0-0.1-0.1-0.2-0.1-0.2
c-0.1-0.1-0.3-0.1-0.4,0c-0.2,0.1-0.2,0.2,0,0.4c0.1,0.1,0.3,0.1,0.4,0C147.8,416.9,147.8,416.8,147.9,416.7z M144.7,370.3
c-0.2,0-0.2,0.2-0.2,0.4c0,0.1,0.1,0.2,0.2,0.2c0.2,0,0.3-0.1,0.3-0.3C145,370.4,144.9,370.3,144.7,370.3z M105.2,370.2
c0,0,0.1-0.1,0.1-0.2c0-0.1-0.1-0.2-0.1-0.2c-0.1,0-0.2,0-0.2,0c-0.2,0.1-0.2,0.2,0,0.3C105,370.2,105.1,370.2,105.2,370.2z
 M138.7,392.3c0.2,0,0.3-0.1,0.3-0.2c0-0.2-0.2-0.3-0.4-0.2c-0.1,0-0.2,0.1-0.2,0.1C138.4,392.2,138.5,392.2,138.7,392.3z
 M97.9,357.9c0-0.1,0.1-0.1,0.1-0.2c0-0.1-0.1-0.1-0.1-0.2c-0.1,0.1-0.1,0.1-0.2,0.2c0,0.1,0,0.2,0,0.2
C97.7,357.9,97.8,357.9,97.9,357.9z M88.3,320.4c0.1,0,0.2-0.1,0.2-0.1c0.1-0.2,0-0.3-0.2-0.4c0,0-0.1,0.1-0.2,0.1
C88.1,320.2,88.1,320.3,88.3,320.4z M77.6,364.3c0.1,0,0.1-0.1,0.2-0.1c0,0,0-0.1-0.1-0.2c-0.2-0.1-0.3,0-0.3,0.2
C77.4,364.2,77.5,364.3,77.6,364.3z M67.4,390.4l-0.2-0.1l0,0.1L67.4,390.4z M81.3,343.9l-0.2,0.1l0.2,0.1L81.3,343.9z
 M109.2,400.9c0.2-0.1,0.2-0.2,0-0.3c0,0-0.1,0.1-0.2,0.1C109.1,400.8,109.1,400.8,109.2,400.9z M162.3,393.3
c0.1,0,0.1-0.1,0.2-0.1c0,0-0.1-0.1-0.1-0.2c-0.1,0-0.1,0.1-0.2,0.1C162.2,393.2,162.2,393.3,162.3,393.3z M76.3,323.8
c0.1,0,0.1-0.1,0.1-0.1c0,0-0.1-0.1-0.1-0.2c-0.1,0-0.1,0.1-0.1,0.1C76.2,323.7,76.2,323.7,76.3,323.8z M73.6,365.2
c0.1,0,0.1,0.1,0.2,0.1c0.1,0,0.2-0.1,0.2-0.1c0-0.2-0.1-0.2-0.2-0.2C73.6,365,73.6,365.1,73.6,365.2z M111.9,401.8l-0.1-0.1
l0,0.2L111.9,401.8z M97.1,298.3l0.1-0.1l-0.1,0L97.1,298.3z M135.4,351l-0.1-0.1l0,0.1L135.4,351z M131.6,329.1l0.2,0.1l0-0.2
L131.6,329.1z M67.1,325.5c0-0.1-0.1-0.1-0.1-0.2c-0.1,0-0.2,0.1-0.2,0.1c0,0.1,0.1,0.1,0.1,0.2C67,325.6,67,325.6,67.1,325.5z
 M104.9,358.6l0.2,0.1l0-0.2L104.9,358.6z M102.1,392.9c0.1,0,0.1-0.1,0.2-0.1c0-0.1-0.1-0.1-0.1-0.1c0,0-0.1,0.1-0.2,0.1
C102,392.8,102.1,392.9,102.1,392.9z"/>

<path d="M156.7,286.8c-1.3,0.3-2.6,0.5-3.8,1c-1.8,0.7-3.6,0.8-5.5,0.5c-0.9-0.1-1.9-0.2-2.8-0.1c-1.4,0.1-2.6-0.1-3.8-0.7
c-0.6-0.3-1.4-0.4-2.1-0.6c-1-0.4-2.2-0.4-3.3-0.7c-0.9-0.2-1.4-1-2.4-1.2c-2-0.4-3.7-1.4-5.5-2.3c-0.7-0.3-1.3-0.7-1.7-1.1
c-1.2-1.2-2.4-2.3-3.9-3.3c-0.6-0.4-1.1-0.9-1.5-1.4c-0.5-0.7-1.1-1.2-1.9-1.7c-0.2-0.1-0.3-0.2-0.4-0.3c-0.8-1.2-2.1-2.2-3.1-3.2
c-0.9-1-1.7-2-2.5-3c-0.3-0.4-0.4-0.8-0.5-1.3c-0.2-0.8-0.5-1.4-1.5-1.8c-0.3-0.1-0.7-0.3-0.9-0.6c-0.9-1.3-1.8-2.7-2-4.2
c0-0.6-0.3-1.2-0.8-1.7c-0.2-0.2-0.4-0.5-0.7-0.7c-1.6-1.4-2.6-3-2.9-4.8c-0.1-0.9-0.6-1.7-1.2-2.5c-0.8-1.2-1.5-2.4-2-3.7
c-0.3-0.7-0.6-1.4-1.1-2.1c-0.4-0.5-0.6-1.1-0.7-1.7c-0.3-1.6-1-3.2-1.7-4.8c-0.6-1.6-1.3-3.2-1.6-4.8c-0.1-0.9-0.2-1.8-0.8-2.6
c-0.3-0.4-0.5-0.8-0.7-1.2c-0.3-0.7-0.5-1.5-0.7-2.2c-0.3-1,0.2-2.2-0.3-3.1c-0.5-0.8-0.9-1.7-1.3-2.5c-0.2-0.4-0.3-0.9-0.3-1.3
c0-1.5-0.6-3-1-4.4c-0.6-2.1-1.2-4.1-1.9-6.2c-0.6-1.8-1.1-3.5-1-5.4c0-1.1-0.3-2.1-0.7-3.1c-0.5-1.3-0.8-2.7-0.8-4
c0-1.7-0.4-3.3-1.1-4.9c-0.5-1-0.7-2-0.6-3.1c0.1-1.1-0.2-2.1-0.6-3.1c-0.6-1.3-0.8-2.6-0.8-4c0-0.8,0.1-1.5-0.1-2.3
c-0.3-1-0.3-2.1-0.8-3.1c-0.7-1.3-0.8-2.6-0.8-4c0-0.9,0-1.8-0.2-2.7c-0.2-1.5-0.4-3,0-4.5c0.1-0.6-0.1-1.2-0.4-1.7
c-0.2-0.4-0.5-0.9-0.5-1.3c0-1.5-0.3-3-0.8-4.5c-0.3-0.9-0.4-1.8-0.6-2.7c-0.1-0.7-0.3-1.5-0.3-2.2c0.1-2.7-0.2-5.4-0.9-8.1
c-0.2-0.6-0.2-1.2-0.1-1.8c0.1-0.8,0.2-1.5-0.2-2.2c-0.6-1-0.6-2-0.3-3.1c0.1-0.4,0-0.9-0.1-1.3c-0.2-0.7-0.5-1.5-0.4-2.2
c0.1-0.9-0.1-1.8-0.4-2.7c-0.4-1-0.5-2.1-0.5-3.1c0-0.8,0.1-1.5-0.2-2.3c-0.4-1.4-0.3-2.7,0.4-4c0.2-0.4,0.3-0.9,0.2-1.3
c-0.2-0.6-0.6-1.1-0.5-1.7c0.1-0.5,0.1-0.9,0.3-1.3c0.2-0.6,0-1.2-0.3-1.7c-0.3-0.6-0.5-1.1-0.4-1.8c0.2-1,0.4-2.1,0.6-3.1
c0.1-0.5,0.4-0.8,0.8-1.2c-0.3-0.2-0.5-0.4-0.8-0.6c-0.4-0.4-0.6-0.8-0.5-1.2c0.1-0.9,0.4-1.8,0-2.6c-0.4-0.9-0.3-1.8-0.5-2.6
c-0.2-1-0.4-2-0.4-3.1c0-0.7-0.1-1.5-0.2-2.2c-0.1-1.3,0.5-2.2,1.8-2.8c0,0.1,0.1,0.2,0.1,0.3c0.2,2.9,0.4,5.9,0.9,8.8
c0.2,1.2,0.2,2.4-0.2,3.5c-0.2,0.6,0,1.2,0.1,1.8c0,0.3-0.1,0.6-0.1,0.9c0.4,0.3,0.6,0.8,0.6,1.2c0,0.8-0.1,1.5-0.2,2.3
c-0.1,1.1,0.1,2.1,0.6,3.1c0.2,0.4,0.4,0.8,0.6,1.3c0.1,0.3,0.1,0.6,0,0.9c-0.1,0.3-0.2,0.6-0.3,0.9c-0.3,0.7-0.3,1.5,0,2.2
c0.2,0.4,0.4,0.8,0.6,1.3c0.3,0.9,0.5,1.7,0.2,2.7c-0.3,0.9-0.3,1.8,0.1,2.7c0.1,0.3,0.2,0.6,0.2,0.9c-0.3,1.5,0.3,3,0,4.5
c-0.2,0.9,0.1,1.8,0.5,2.6c0.3,0.6,0.2,1.2-0.2,1.7c-0.2,0.2-0.3,0.6-0.2,0.9c0.8,1.6,1.2,3.2,1.1,4.8c0,0.1,0,0.3,0.1,0.4
c0.6,1,0.6,2,0.4,3.1c0.5,1,0.3,2.1,0,3.1c-0.2,0.9-0.2,1.8,0.1,2.7c0.3,0.7,0.4,1.5,0.7,2.2c0.4,1,0.8,2,1.1,3
c0.3,0.7,0.4,1.5,0.4,2.2c0,0.8,0.1,1.5,0,2.3c-0.1,1.2,0.2,2.4,0.8,3.5c0.4,0.7,0.4,1.5,0,2.2c-0.1,0.3-0.3,0.6-0.4,0.9
c-0.3,0.9-0.3,1.8,0.3,2.6c0.8,1.1,1,2.2,0.5,3.5c-0.2,0.4,0.2,0.9,0.6,1.2c0.1,0.1,0.3,0.2,0.4,0.3c0.6,0.4,1,0.9,1,1.6
c0,0.8,0,1.5-0.2,2.3c-0.2,1.1,0,2.1,0.6,3.1c0.7,1.1,1,2.3,1,3.5c0,0.8,0,1.5,0.1,2.3c0.1,0.4,0.2,0.9,0.4,1.3
c0.7,1.3,0.8,2.6,0.5,4c-0.2,0.8,0,1.5,0.5,2.2c0.2,0.3,0.5,0.5,0.5,0.8c0.6,1.9,1.5,3.7,1.6,5.7c0,1.4,0.4,2.7,1.2,3.9
c0.3,0.4,0.4,0.9,0.4,1.3c0.3,1.2,0.5,2.4,0.7,3.6c0.1,0.7,0.1,1.5,0.5,2.2c0.5,0.8,0.5,1.8,1,2.6c0.3,0.5,0.7,1.1,0.8,1.7
c0.4,2.1,1.2,4.1,2,6.1c0.4,1.1,1,2.3,1,3.5c0,0.9,0.3,1.8,0.9,2.6c0.4,0.5,0.6,1.1,0.7,1.7c0.1,0.9,0.1,1.8,0.6,2.7
c0.5,0.8,0.8,1.7,1,2.6c0.2,1.1,0.8,2,1.4,2.9c1.1,1.5,1,1.6,1.6,4.3c0.1,0.4,0.3,0.9,0.5,1.3c0.7,1.2,1.5,2.5,1.8,3.8
c0.2,0.9,0.7,1.7,1.1,2.5c0.9,1.8,2.1,3.6,3.4,5.2c0.7,0.9,1.3,1.8,1.6,2.9c0.1,0.4,0.4,0.8,0.8,1.2c0.5,0.4,0.9,1,1.2,1.5
c0.6,1.1,1.1,2.2,1.7,3.4c0.2,0.4,0.3,0.9,0.7,1.2c1.8,1.5,3,3.5,4.5,5.2c0.1,0.1,0.3,0.1,0.5,0.2c1.1,0.4,1.9,1,2.1,2
c0.2,0.6,0.6,1.1,1.3,1.4c1,0.5,1.9,1,2.9,1.5c0.8,0.4,1.6,0.9,2.1,1.5c0.6,0.8,1.6,1.2,2.6,1.6c1.4,0.5,2.8,0.9,4.1,1.5
c1.5,0.7,3.1,1.1,4.8,1.4c2.2,0.3,4.5,0.7,6.7,1c0.8,0.1,1.5,0,2.2-0.1c2-0.4,0,1.1,1.8,0.4L156.7,286.8z"/>

<path d="M92.5,84.6c-0.9-0.3-1.3-0.9-1.2-1.9c0-0.2,0.2-0.4,0.4-0.4c0.3-0.1,0.6-0.1,0.9,0c1,0.1,1.9,0,2.7-0.7
c0.4-0.3,0.9-0.5,1.4-0.4c0.2,0.1,0.4,0,0.6-0.1c0.7-0.3,1.3-0.6,2.1-0.7c0.2,0,0.4-0.2,0.5-0.3c0.5-0.5,1-0.7,1.6-0.9
c0.2,0,0.3,0,0.5,0c0.2-0.5,0.6-0.6,1.1-0.7c0.9-0.9,2.1-1.5,3.3-1.6c0.8-0.1,1.4-0.3,2-0.8c0.5-0.4,1.1-0.7,1.7-0.8
c1-0.2,1.8-0.5,2.6-1.1c0.2-0.2,0.5-0.3,0.8-0.4c0.5-0.2,1-0.3,1.5-0.6c1.1-0.6,2.3-1,3.5-1.2c0.8-0.2,1.6-0.5,2.4-0.8
c0.9-0.3,1.7-0.7,2.7-0.8c0.3,0,0.6-0.2,0.9-0.3c0.8-0.5,1.7-0.8,2.6-1.1c0.7-0.2,1.4-0.5,2-0.9c0.5-0.3,1.1-0.5,1.8-0.5
c0.3,0,0.6-0.1,0.9-0.3c0.5-0.4,1-0.7,1.7-0.8c1.1-0.3,2.2-0.6,3.3-1.1c1.3-0.3,2.6-0.8,3.8-1.4c0.4-0.2,0.8-0.2,1.2-0.2
c0.7,0,1.2-0.2,1.7-0.7c0.2-0.2,0.4-0.5,0.7-0.7c0.1-0.1,0.2-0.1,0.3-0.1c0.5-0.1,1,0.2,1.5,0.1c0.5-0.1,1,0.1,1.5,0.4
c0.1,0,0.2,0,0.3,0c0.1,0,0.2-0.1,0.3-0.1c0.4-0.4,0.7-0.8,1-1.2c0.3-0.3,0.4-0.7,0.6-1.1c0.2-0.3,0.4-0.5,0.8-0.5
c1.2-0.2,2.5-0.4,3.7-0.2c0.5,0.1,0.8-0.1,1.1-0.4c0.2-0.1,0.3-0.3,0.5-0.4c0.2-0.1,0.4-0.1,0.6-0.1c0,0.6-0.3,1.1-0.3,1.7
c0,0.2,0.1,0.4,0.2,0.6c0.1,0.1,0.1,0.2,0.2,0.3c-0.1,0-0.2,0.1-0.3,0.1c-0.7-0.1-1.4-0.3-1.9-0.9c-0.2-0.2-0.6-0.2-0.9,0
c-0.5,0.3-1,0.7-1.6,1c-0.3,0.2-0.2,0.8,0,1.1c0.1,0.1,0.2,0.2,0.4,0.3c-0.8,0.3-1.7,0.4-2.6,0.6c-0.7,0.1-1.3,0.4-1.8,1
c-0.1,0.1-0.1,0.1-0.2,0.2c-0.2,0.1-0.5,0.2-0.8,0.1c-0.3,0.4-0.7,0.8-1.2,1c-0.4,0.2-0.8,0.3-1.2,0.5c-0.5,0.2-1,0.3-1.5,0.3
c-0.6,0-1.3-0.1-1.9,0.1c-0.5,0.2-0.9,0.4-1.5,0.4c-0.2,0-0.4,0.1-0.6,0.2c-0.3,0.2-0.6,0.5-1,0.8c-0.4,0.3-0.8,0.6-1.4,0.7
c-0.8,0.2-1.6,0.6-2.3,0.9c-0.3,0.1-0.6,0.2-0.9,0.1c-0.7-0.2-1.2,0.3-1.6,0.8c-0.3,0.4-0.7,0.4-1.1,0.2c-0.1,0-0.2-0.1-0.3-0.1
c-0.4-0.2-0.8,0-1.2,0.3c-0.1,0.1-0.1,0.1-0.2,0.2c-0.3,0.3-0.5,0.7-0.9,0.8c-0.4,0.1-0.8,0.2-1.2,0.4c-0.8,0.5-1.6,0.6-2.4,0.5
c-0.5,0-1,0.1-1.5,0.4c-0.5,0.4-1.1,0.6-1.7,0.5c-0.2,0-0.4,0.1-0.5,0.3c-0.4,0.5-0.9,0.8-1.5,1.1c-0.4,0.2-0.8,0.3-1.2,0.3
c-0.6,0-1,0.2-1.2,0.8c-0.2,0.3-0.5,0.4-0.8,0.4c-0.3,0-0.6-0.1-0.9-0.1c-0.5,0-1,0.1-1.5,0.4c-0.4,0.3-0.8,0.7-1.3,0.9
c-0.2,0.1-0.4,0.1-0.6,0.1c0-0.2,0.1-0.4,0.1-0.6c0-0.2-0.2-0.4-0.3-0.5c-0.1-0.1-0.4-0.1-0.6,0c-0.2,0.1-0.3,0.3-0.2,0.5
c0.1,0.3,0.3,0.5,0.6,0.7c-0.5,0.8-0.7,0.9-1.5,0.4c-0.3-0.2-0.6-0.1-0.9,0c-0.3,0.2-0.7,0.5-1,0.8c-0.6,0.6-1.3,1.1-2,1.5
c-0.3,0.2-0.6,0.3-0.9,0.3c-0.7,0.2-1.4,0.3-2.1,0.7c-0.3,0.2-0.8,0.3-1.2,0.4c-0.3,0.1-0.6,0.1-0.9,0.2
c-1.5,0.8-3.2,1.1-4.7,1.9c-0.4,0.2-0.8,0.3-1.2,0.3c-0.6,0-1.3,0.1-1.9,0.1C93.1,84.8,92.8,84.8,92.5,84.6z"/>

<path d="M126.4,71.9c0.1,0,0.2,0,0.3-0.1c0.2-0.2,0.1-0.4-0.1-0.4c-0.1,0-0.1,0.1-0.2,0.2C126.4,71.7,126.4,71.8,126.4,71.9z"/>

<path d="M103.8,79.3c0,0,0-0.2-0.1-0.3c-0.1-0.1-0.3-0.2-0.4-0.3c-0.1,0.2-0.1,0.3,0,0.5C103.4,79.4,103.6,79.4,103.8,79.3z"/>

<path d="M101.8,80.4c0.1,0,0.2,0,0.2,0c0.2-0.3,0.1-0.6,0.1-1c-0.1,0.2-0.3,0.3-0.4,0.5c0,0.1-0.1,0.2-0.1,0.3
C101.6,80.3,101.7,80.4,101.8,80.4z"/>


<path d="M156.5,58.7C156.5,58.7,156.5,58.7,156.5,58.7L156.5,58.7L156.5,58.7L156.5,58.7L156.5,58.7
C156.5,58.7,156.4,58.7,156.5,58.7C156.5,58.8,156.5,58.8,156.5,58.7C156.5,58.8,156.5,58.7,156.5,58.7z"/>


<path d="M159.1,59.6c0.1-0.1,0.3-0.3,0.4-0.4c0.2-0.2,0.2-0.5-0.1-0.8c-0.2-0.2-0.5-0.4-0.8-0.2c-0.6,0.3-1.4,0.4-2,0.6
c0.1,0.2,0.2,0.5,0.4,0.7C157.4,60.1,158.5,60.2,159.1,59.6z"/>


<path d="M166.2,55.3c-0.4,0.4-0.9,0.8-1.2,1.4c0,0.1,0,0.2,0,0.3c0.1,0.2,0.2,0.3,0.5,0.3c0.1,0,0.2,0,0.3-0.1
c0.7-0.4,1.3-1,1.7-1.7c0-0.1,0-0.2,0-0.3c0-0.2-0.2-0.3-0.5-0.2C166.7,55.1,166.4,55.1,166.2,55.3z"/>


<path d="M161.3,58.9c0.1,0.3,0.5,0.5,0.7,0.3c0.3-0.3,0.6-0.5,0.9-0.8c0.3-0.2,0.2-0.5,0.1-0.8c-0.1-0.2-0.2-0.3-0.2-0.5
c-0.3,0.4-0.8,0.5-1.2,0.8C161.3,58,161.2,58.5,161.3,58.9z"/>


<path d="M152.5,63c0,0-0.1,0-0.1,0c0,0,0,0-0.1,0c0,0,0.1,0.1,0.1,0.1C152.4,63.1,152.4,63,152.5,63z"/>


<path d="M153.8,62.6c0.2-0.1,0.2-0.3,0.2-0.5c0-0.1-0.1-0.2-0.2-0.2c-0.2-0.2-0.4-0.2-0.5,0.1c-0.3,0.4-0.5,0.8-0.8,1.2
C153,63.1,153.4,62.8,153.8,62.6z"/>


<path d="M162.7,56.2c0,0,0,0.2,0,0.2c0.1,0,0.1,0.1,0.1,0.1c0-0.1,0-0.1,0.1-0.2C163,56.1,162.9,56.1,162.7,56.2z"/>


<path d="M162.8,56.9C162.9,57,162.9,57,162.8,56.9C162.9,57,162.9,56.9,162.8,56.9c0.1-0.2,0.1-0.3,0-0.4
C162.8,56.7,162.8,56.8,162.8,56.9z"/>





<path d="M54.9,101.2c0.8,0.1,1.2,0.5,1.4,1.4c0,0.2-0.1,0.3-0.2,0.4c-0.2,0.2-0.5,0.2-0.7,0.2c-0.8,0.1-1.5,0.3-2,1
c-0.3,0.4-0.6,0.6-1.1,0.5c-0.2,0-0.4,0.1-0.5,0.2c-0.5,0.4-1,0.7-1.5,0.9c-0.1,0.1-0.3,0.2-0.4,0.4c-0.3,0.5-0.7,0.8-1.1,1
c-0.1,0.1-0.3,0.1-0.4,0.1c-0.1,0.4-0.4,0.6-0.7,0.7c-0.6,0.9-1.4,1.6-2.3,1.9c-0.6,0.2-1.1,0.5-1.5,1c-0.3,0.4-0.7,0.8-1.2,1
c-0.7,0.3-1.3,0.7-1.8,1.4c-0.2,0.2-0.4,0.3-0.6,0.5c-0.4,0.2-0.8,0.4-1.1,0.7c-0.8,0.7-1.6,1.2-2.6,1.6
c-0.6,0.3-1.2,0.7-1.8,1.1c-0.6,0.4-1.3,0.9-2,1.2c-0.2,0.1-0.5,0.2-0.6,0.4c-0.5,0.6-1.2,1-1.9,1.4c-0.5,0.3-1,0.6-1.4,1.1
c-0.4,0.4-0.8,0.6-1.3,0.7c-0.3,0.1-0.5,0.2-0.7,0.4c-0.3,0.4-0.7,0.8-1.2,1c-0.9,0.4-1.7,0.9-2.4,1.4c-1,0.4-1.9,1.1-2.8,1.8
c-0.3,0.2-0.6,0.3-1,0.3c-0.5,0.1-0.9,0.4-1.2,0.9c-0.1,0.2-0.2,0.5-0.4,0.7c0,0.1-0.1,0.1-0.2,0.1c-0.4,0.2-0.9,0-1.3,0.1
c-0.4,0.2-0.9,0.1-1.3-0.1c-0.1,0-0.2,0-0.2,0.1c-0.1,0-0.1,0.1-0.2,0.2c-0.2,0.4-0.4,0.8-0.6,1.2c-0.2,0.3-0.2,0.7-0.3,1
c-0.1,0.3-0.3,0.5-0.5,0.6c-1,0.3-1.9,0.8-3,0.8c-0.4,0-0.6,0.2-0.8,0.5c-0.1,0.1-0.2,0.3-0.3,0.4c-0.1,0.1-0.3,0.1-0.5,0.2
c-0.1-0.5,0-1-0.1-1.5c-0.1-0.2-0.1-0.3-0.3-0.5c-0.1-0.1-0.1-0.1-0.2-0.2c0.1,0,0.1-0.1,0.2-0.1c0.6,0,1.2,0,1.7,0.4
c0.2,0.2,0.5,0.1,0.7-0.1c0.4-0.4,0.7-0.8,1-1.1c0.2-0.2,0-0.7-0.3-0.9c-0.1-0.1-0.2-0.2-0.4-0.2c0.6-0.4,1.3-0.6,1.9-0.9
c0.6-0.2,1-0.5,1.3-1.1c0-0.1,0.1-0.1,0.1-0.2c0.2-0.2,0.4-0.2,0.6-0.2c0.2-0.4,0.4-0.8,0.7-1c0.3-0.2,0.6-0.4,0.8-0.6
c0.4-0.3,0.7-0.4,1.2-0.5c0.5-0.1,1.1-0.1,1.5-0.4c0.3-0.2,0.7-0.5,1.1-0.5c0.1,0,0.3-0.1,0.4-0.3c0.2-0.3,0.4-0.6,0.6-0.8
c0.3-0.4,0.6-0.7,1-0.9c0.6-0.3,1.2-0.7,1.7-1.2c0.2-0.1,0.5-0.2,0.7-0.2c0.6,0,0.9-0.4,1.1-0.9c0.2-0.4,0.5-0.4,0.9-0.3
c0.1,0,0.2,0,0.3,0.1c0.4,0.1,0.7-0.1,0.9-0.4c0.1-0.1,0.1-0.2,0.1-0.2c0.1-0.3,0.3-0.6,0.6-0.8c0.3-0.2,0.6-0.3,0.9-0.6
c0.5-0.5,1.1-0.8,1.8-0.8c0.4,0,0.8-0.2,1.1-0.6c0.3-0.4,0.7-0.7,1.3-0.7c0.1,0,0.3-0.2,0.4-0.3c0.2-0.5,0.6-0.9,1-1.2
c0.3-0.2,0.6-0.4,0.9-0.4c0.5-0.1,0.7-0.4,0.8-0.9c0.1-0.3,0.3-0.4,0.5-0.5c0.2-0.1,0.5,0,0.8-0.1c0.4-0.1,0.8-0.2,1.1-0.6
c0.3-0.4,0.5-0.7,0.9-0.9c0.1-0.1,0.3-0.1,0.5-0.2c0,0.2,0,0.4,0.1,0.5c0.1,0.2,0.2,0.3,0.3,0.4c0.1,0.1,0.3,0.1,0.5-0.1
c0.1-0.1,0.1-0.3,0.1-0.5c-0.1-0.3-0.4-0.4-0.6-0.5c0.2-0.8,0.4-0.9,1.1-0.6c0.3,0.1,0.5,0,0.7-0.2c0.2-0.3,0.4-0.5,0.6-0.8
c0.3-0.6,0.8-1.1,1.3-1.6c0.2-0.2,0.4-0.3,0.6-0.4c0.5-0.2,1.1-0.5,1.5-0.9c0.2-0.2,0.6-0.4,0.9-0.6c0.2-0.1,0.5-0.2,0.7-0.4
c1-1,2.3-1.4,3.4-2.4c0.3-0.2,0.6-0.4,0.9-0.4c0.5-0.1,1-0.3,1.5-0.4C54.3,101.1,54.6,101.1,54.9,101.2z"/>


<path d="M30.1,117.6c-0.1,0-0.2,0.1-0.2,0.1c-0.1,0.2,0,0.3,0.1,0.3c0.1,0,0.1-0.1,0.1-0.2C30.2,117.7,30.2,117.7,30.1,117.6z"
/>


<path d="M46.9,107.6c0,0,0.1,0.2,0.1,0.2c0.1,0.1,0.3,0.1,0.4,0.2c0.1-0.2,0-0.3-0.1-0.4C47.2,107.4,47,107.4,46.9,107.6z"/>


<path d="M48.3,106.3c-0.1,0-0.2,0-0.2,0c-0.1,0.3,0.1,0.6,0.1,0.8c0.1-0.2,0.1-0.3,0.2-0.5c0-0.1,0-0.2,0-0.2
C48.4,106.3,48.3,106.3,48.3,106.3z"/>



<path d="M9,134.3C9,134.3,9,134.3,9,134.3L9,134.3L9,134.3L9,134.3L9,134.3C9,134.3,9,134.3,9,134.3C9,134.2,9,134.2,9,134.3
C9,134.2,9,134.2,9,134.3z"/>


<path d="M11.2,129.7C11.2,129.7,11.2,129.7,11.2,129.7c0.1,0,0.1,0,0.1,0c0,0-0.1,0-0.1-0.1C11.2,129.6,11.2,129.7,11.2,129.7z"
/>


<path d="M10.2,130.3c-0.1,0.1-0.1,0.3,0,0.5c0.1,0.1,0.1,0.2,0.2,0.2c0.2,0.2,0.3,0.1,0.4-0.1c0.1-0.4,0.2-0.8,0.4-1.2
C10.7,129.7,10.4,130,10.2,130.3z"/>




<path d="M11.4,62.2c0-0.1,0-0.1,0-0.2c-0.1,0-0.1,0.1-0.2,0.1c0,0,0,0.1,0.1,0.1C11.3,62.2,11.4,62.2,11.4,62.2z"/>


<path d="M12.6,63.4c3.5,1.1,7,2.5,10.6,3.3c0.5,0.1,0.9,0.2,1.4,0.4c1.8,0.7,3.6,1.4,5.4,2.1c0.8,0.3,1.6,0.6,2.5,0.6
c0.8,0,1.4,0.3,2,0.7c0.8,0.6,1.7,0.9,2.6,1.2c0.8,0.3,1.6,0.6,2.4,0.9c0.9,0.3,1.8,0.6,2.7,1.1c1,0.5,1.9,1,3,1.1
c0.6,0.1,1.1,0.5,1.6,0.8c0.4,0.2,0.8,0.5,1.3,0.6c0.3,0.1,0.7,0,1.1-0.3c0-0.6-0.2-1-0.4-1.2c-0.8-0.8-1.8-1.2-2.9-1.5
c-0.7-0.2-1.3-0.6-2-0.9c-0.7-0.2-1.4-0.4-1.8-1.3c-0.9-0.3-1.9-0.4-2.6-1.2c-0.2-0.2-0.5,0-0.8,0c-0.5,0.1-1,0-1.5-0.2
c-0.6-0.2-1-0.6-1.2-1.6c-0.1-0.6-0.3-1-0.7-0.9c-1.1,0.2-1.8-0.6-2.9-0.3c-0.7,0.2-1.2-0.1-1.7-0.6c-0.2-0.2-0.4-0.3-0.7-0.1
c-0.9,0.5-1.5,0.2-2.2-0.1c-1.7-0.6-3.3-1.3-5.2-1.5c-0.6-0.1-1.1-0.4-1.6-0.9c-0.3-0.3-0.6-0.3-1-0.2c-0.7,0.2-1.3,0.3-1.8-0.1
c-1-0.7-2.3-0.6-3.3-1.3c-1-0.7-2.2-0.8-3.6-0.2c0,0.2,0,0.3,0,0.4C11.7,63.1,12.2,63.2,12.6,63.4z"/>


<path d="M5.2,60.6c0-0.1,0-0.1,0-0.2c-0.1,0-0.1,0-0.2,0c0,0.1,0,0.1,0,0.2C5,60.6,5.1,60.6,5.2,60.6z"/>


<path d="M10.2,62.5c0.3,0,0.6-0.2,1-0.4c-0.1-0.2-0.2-0.5-0.4-0.6c-0.6-0.4-1.2-0.7-1.9-1c-1.1-0.6-2.4-0.6-3.9,0.1
c0,0.1,0.1,0.2,0.1,0.3C6.8,61.8,8.5,62.2,10.2,62.5z"/>


<path d="M4.9,60.4c-0.1-1-0.5-1.7-1.2-1.6c-0.8,0.1-1.5-0.4-2.5,0c0,0.2,0,0.3,0,0.4C2.2,60.3,3.5,60.6,4.9,60.4z"/>


<path d="M1.1,59.8c0,0,0-0.1,0-0.1C1.1,59.7,1.1,59.7,1.1,59.8C1,59.8,1,59.8,1.1,59.8C1.1,59.8,1.1,59.8,1.1,59.8z"/>


<path d="M55.2,78.9c0-0.1,0-0.2,0-0.3c-0.2-0.4-0.4-0.8-0.5-1.2c-0.3-0.9-0.4-1-1.5,0.2c-0.1,0.4,0,0.7,0.2,0.9
C53.9,78.9,54.5,79,55.2,78.9z"/>


<path d="M53.2,77.5C53.2,77.5,53.2,77.5,53.2,77.5c-0.1,0-0.1,0-0.2,0c0,0,0.1,0.1,0.1,0.1C53.1,77.6,53.2,77.6,53.2,77.5z"/>


<path d="M50,77C50,76.9,50,76.9,50,77c-0.1-0.1-0.2-0.1-0.2-0.1c0,0.1,0,0.2,0,0.3C49.9,77.1,49.9,77,50,77z"/>


<path d="M53,77.5c-0.4-0.4-0.8-0.9-1.3-1.2c-0.3-0.2-0.7-0.2-1.1,0.2c-0.2,0.2-0.4,0.3-0.6,0.5c0.3,0.2,0.5,0.3,0.8,0.5
C51.4,77.9,52.2,77.9,53,77.5z"/>


<path d="M0.4,60.1c0.2,0,0.4-0.1,0.7-0.4c0-0.4-0.1-0.7-0.3-0.7c-0.3,0-0.5,0.1-0.7,0.6C-0.1,60,0,60.1,0.4,60.1z"/>


<path d="M55.7,79.2c0-0.2-0.1-0.2-0.3-0.1c0,0.1,0,0.1,0.1,0.2C55.5,79.2,55.6,79.2,55.7,79.2z"/>


<path d="M55.4,79c0-0.1,0-0.1-0.1-0.2c0,0-0.1,0-0.1,0c0,0.1,0,0.1,0,0.2C55.3,79,55.3,79,55.4,79z"/>


<path d="M49.3,76c0,0,0-0.1,0-0.1C49.2,75.9,49.2,75.9,49.3,76C49.2,75.9,49.2,75.9,49.3,76C49.2,76,49.2,76,49.3,76z"/>


<path d="M49.8,76.8c0-0.6-0.1-0.9-0.5-0.9C49.3,76.5,49.5,76.7,49.8,76.8z"/>




<path d="M137.7,128.7c0,0.1,0,0.1,0,0.2c0.1,0,0.1,0,0.2-0.1c0,0,0-0.1,0-0.1C137.8,128.7,137.8,128.7,137.7,128.7z"/>


<path d="M136.8,127.2c-3.3-1.8-6.4-3.8-9.8-5.3c-0.4-0.2-0.9-0.4-1.3-0.7c-1.6-1-3.2-2.1-4.8-3.1c-0.7-0.4-1.4-0.9-2.3-1.1
c-0.7-0.2-3.4-2.3-4.2-2.7c-0.7-0.4-1.4-0.9-2.2-1.3c-0.8-0.5-1.7-0.9-2.4-1.6c-0.8-0.7-1.7-1.3-2.8-1.7c-0.6-0.2-1-0.7-1.5-1.1
c-0.4-0.3-0.7-0.6-1.1-0.9c-0.3-0.2-0.7-0.1-1.1,0.1c-0.2,0.6,0,1,0.2,1.3c0.7,0.9,1.6,1.5,2.5,2c0.7,0.3,1.1,0.9,1.8,1.2
c0.6,0.4,1.3,0.7,1.5,1.6c0.8,0.5,1.8,0.8,2.3,1.6c0.1,0.2,0.5,0.1,0.8,0.1c0.6,0,1,0.2,1.4,0.4c0.5,0.3,5.4,3.9,5.7,4.5
c0.1,0.2,2.2,0.4,2.8,0.8c1.6,0.9,3,1.9,4.8,2.4c0.6,0.2,1,0.6,1.4,1.2c0.2,0.4,0.6,0.5,1,0.4c0.7,0,1.4,0,1.8,0.4
c0.9,0.8,2.2,1,3,1.9c0.8,0.9,2,1.2,3.5,0.8c0-0.1,0.1-0.3,0.1-0.4C137.6,127.7,137.2,127.5,136.8,127.2z"/>


<path d="M143.6,131.4c0,0.1,0,0.1,0,0.2c0.1,0,0.1,0,0.2,0c0-0.1,0-0.1,0-0.2C143.7,131.4,143.6,131.4,143.6,131.4z"/>


<path d="M143.7,131.6c-0.1,1,0.2,1.8,0.9,1.8c0.8,0.1,1.4,0.7,2.4,0.5c0-0.2,0.1-0.3,0-0.4C146.4,132.2,145.2,131.7,143.7,131.6z
"/>


<path d="M147.4,133c0,0,0,0.1,0,0.1C147.4,133.1,147.4,133.1,147.4,133C147.4,133,147.4,133,147.4,133
C147.4,133,147.4,133,147.4,133z"/>


<path d="M99.7,105.6C99.7,105.6,99.7,105.6,99.7,105.6c0.1,0.1,0.1,0.1,0.2,0c0,0-0.1-0.1-0.1-0.1
C99.7,105.5,99.7,105.5,99.7,105.6z"/>


<path d="M102.7,106.7C102.7,106.7,102.7,106.8,102.7,106.7c0.1,0.1,0.1,0.1,0.2,0.2c0-0.1,0-0.2,0.1-0.3
C102.8,106.6,102.8,106.7,102.7,106.7z"/>


<path d="M99.9,105.6c0.3,0.5,0.6,1,1,1.4c0.2,0.3,0.6,0.3,1.1,0.1c0.2-0.1,0.5-0.2,0.7-0.3c-0.2-0.2-0.4-0.4-0.7-0.6
C101.5,105.5,100.8,105.4,99.9,105.6z"/>


<path d="M148.2,132.8c-0.2,0-0.5,0-0.7,0.3c-0.1,0.4-0.1,0.7,0.1,0.7c0.2,0.1,0.5,0,0.8-0.4C148.6,133,148.5,132.8,148.2,132.8z"
/>


<path d="M97.6,103.5c0,0.2,0.1,0.2,0.2,0.2c0-0.1,0-0.1,0-0.2C97.7,103.4,97.6,103.5,97.6,103.5z"/>


<path d="M97.8,103.7c0,0.1,0,0.1,0,0.2c0,0,0.1,0,0.1,0c0-0.1,0-0.1,0-0.2C97.9,103.7,97.8,103.7,97.8,103.7z"/>


<path d="M103.2,107.8c0,0,0,0.1,0,0.1c0,0,0.1,0,0.1,0C103.3,107.9,103.3,107.9,103.2,107.8C103.3,107.9,103.3,107.8,103.2,107.8
z"/>


<path d="M102.9,106.9c-0.1,0.6-0.1,0.9,0.4,0.9C103.3,107.3,103.1,107.1,102.9,106.9z"/>





<path d="M77.6,67.2c0,0.1-0.1,0.2-0.2,0.2c-0.2-0.7-0.1-1.4,0.2-2c0.3-0.6,0.3-1.1,0.2-1.7c-0.1-0.4,0-0.7,0.3-1
c0.3-0.2,0.5-0.5,0.8-0.7c0.3-0.2,0.4-0.6,0.4-0.9c0-0.7-0.2-1.4,0-2.1c0.2-0.8,0.2-1.6,0.1-2.5c0-0.5,0.1-0.9,0.2-1.4
c0.3-1.2,0.9-2.2,2-2.9c0.4-0.2,0.4-0.5,0-0.9c-0.4-0.4-0.6-0.7-0.4-1.3c0.1-0.2,0.2-0.4,0.2-0.7c0-1.1,0.4-2.1,0.7-3.1
c0.4-1.3,0.6-2.5,1.3-3.7c0.2-0.3,0.2-0.7,0.2-1c0.1-0.5,0-0.9,0.1-1.4c0-0.3,0.1-0.7,0.2-1c0.3-0.6,0.7-1.2,0.9-1.9
c0.2-0.5,0.1-1.2,0.2-1.8c0-0.1,0-0.2,0.1-0.3c0.3-0.8,0.6-1.5,0.8-2.3c0.2-0.7,0.2-1.4,0.4-2.1c0-0.3,0.5-0.6,0.8-0.6
c0.1,0,0.2,0,0.4,0c0.2,0,0.4,0.1,0.6,0.2c0.2,0.4,0.3,0.9,0.4,1.3c0.2,0.7,0.2,1.4-0.2,2.1c-0.3,0.5-0.5,1.1-0.3,1.7
c0.1,0.4,0.1,0.7-0.1,1c-0.2,0.4-0.5,0.8-0.5,1.3c0,0.9-0.4,1.3-1.3,1.4c-0.1,0-0.2,0.1-0.3,0.1c-0.2,0.1-0.3,0.8-0.2,1
c0.3,0.2,0.6,0.4,0.9,0.7c0.3,0.2,0.5,0.6,0.4,0.9c-0.1,0.9-0.2,1.9-0.8,2.7C86,45,86,45.4,85.9,45.9c-0.1,0.9-0.3,1.9-0.9,2.7
c-0.4,0.5-0.4,1.1-0.3,1.7c0.1,0.7,0.1,1.4-0.3,2c-0.3,0.4-0.4,0.8-0.5,1.3c-0.1,0.6-0.4,0.8-0.9,0.9c-0.3,0.1-0.5,0.6-0.4,0.9
c0,0.1,0.1,0.2,0.2,0.3c0.6,0.7,0.5,1.6,0.3,2.4c-0.2,0.9-0.5,1.8-0.8,2.7c-0.4,1.1-1,2.1-1.3,3.3c-0.1,0.4-0.5,0.8-0.7,1.2
c-0.2,0.3-0.2,0.6-0.3,1c-0.1,0.4-0.1,0.5-0.8,0.3C78.4,66.5,78,66.7,77.6,67.2z"/>


<path d="M85.1,44.2c0.1,0,0.2-0.1,0.2-0.1c-0.1-0.3-0.2-0.3-0.3-0.1C85,44,85.1,44.1,85.1,44.2z"/>




<path d="M89.5,29.9c-0.4,0.2-0.8,0.3-1.2,0.5c-0.3-0.5-0.6-1-1-1.4c-0.2-0.2-0.2-0.4-0.2-0.7c0.1-0.9,0.2-1.9,0.6-2.8
c0.5-1.1,0.8-2.2,1.1-3.4c0.1-0.5,0.5-0.8,0.8-1.1c0.4-0.3,0.4-0.8,0.3-1.3c-0.1-0.2-0.2-0.4-0.3-0.7c-0.1-0.2-0.2-0.5-0.1-0.7
c0.2-0.9,0.5-1.8,0.8-2.7c0.1-0.2,0.2-0.4,0.4-0.6c0.3-0.4,0.4-0.8,0.4-1.3c0-0.5,0-0.9,0.4-1.3c0.9-0.8,1.1-1.8,1.2-2.9
c0-0.2,0-0.5-0.1-0.7c-0.1-0.5-0.3-0.9-0.3-1.4c-0.1-0.7,0-1.5,0.5-2C93.4,5,93.7,4.3,94,3.7c0-0.1,0.2-0.2,0.3-0.2
c0.2,0,0.4,0.2,0.5,0.4c0.2,0.6,0.3,1.2-0.1,1.7c-0.3,0.4-0.5,0.8-0.4,1.3c0.1,0.7-0.1,1.4-0.2,2.1c-0.1,0.6,0,1.2,0.3,1.7
c0.1,0.2,0.1,0.5,0,0.7c-0.5,0.7-0.8,1.3-1.2,2.5c-0.1,0.2-0.2,0.4-0.3,0.6c-0.5,0.8-0.5,1.5-0.1,2.4c0.2,0.4,0.3,0.9,0.3,1.4
c0,0.3-0.1,0.5-0.3,0.5c-0.5,0.2-0.8,0.5-0.9,1c0,0.1-0.1,0.2-0.1,0.3c0,0.6-0.3,1.1-0.8,1.5c-0.2,0.1-0.4,0.3-0.5,0.5
c-0.2,0.3-0.3,0.6-0.1,1c0.1,0.2,0.2,0.4,0.2,0.7c0,1.2-0.2,2.4-0.5,3.5c0,0.2-0.1,0.3-0.2,0.5c0,0,0,0,0,0
c0.1,0.3,0.2,0.6,0.3,1C90.2,29.3,90,29.7,89.5,29.9z"/>


<path d="M89.7,27.8c0-0.2,0-0.3-0.1-0.5c-0.1-0.3-0.2-0.4-0.4-0.4c-0.1,0-0.2,0.2-0.2,0.3c0,0.1,0.1,0.2,0.1,0.3
C89.3,27.6,89.5,27.7,89.7,27.8z"/>



<path d="M88.3,30.3C88.3,30.3,88.3,30.3,88.3,30.3C88.3,30.4,88.3,30.4,88.3,30.3C88.3,30.4,88.3,30.4,88.3,30.3
C88.3,30.4,88.3,30.4,88.3,30.3z"/>


<path d="M78.1,70.5c-0.2,0.1-0.2,0.2,0,0.1C78.1,70.6,78.1,70.5,78.1,70.5z"/>


<path d="M77.5,67.5C77.5,67.5,77.5,67.5,77.5,67.5C77.5,67.5,77.4,67.5,77.5,67.5c-0.1,0-0.2,0.1-0.2,0.1
C77.4,67.8,77.5,67.8,77.5,67.5z"/>


<path d="M78.3,70.2c0,0-0.1,0.1-0.1,0.1c0,0,0,0.1,0,0.1c0,0,0.1,0,0.1-0.1C78.2,70.3,78.3,70.3,78.3,70.2z"/>


<path d="M78.6,69.6c-0.2,0.2-0.3,0.4-0.4,0.7C78.5,70,78.6,69.8,78.6,69.6z"/>


<path d="M78.7,69.4c0,0-0.1,0-0.1,0c0,0.1,0,0.1,0,0.2C78.7,69.5,78.7,69.5,78.7,69.4C78.7,69.4,78.7,69.4,78.7,69.4z"/>


<path d="M78.9,69.3c0.1,0,0-0.2,0.1-0.2c-0.2,0-0.3,0.1-0.3,0.3C78.8,69.4,78.9,69.3,78.9,69.3z"/>


<polygon points="95.6,0.2 95.6,0 95.4,0.1 "/>



</svg>
